<svg width="24" height="21" viewBox="0 0 24 21" fill="none" xmlns="http://www.w3.org/2000/svg">
<g clip-path="url(#clip0_2229_3933)">
<path d="M22 3H21V1C21 0.45 20.55 0 20 0C19.45 0 19 0.45 19 1V3H5V1C5 0.45 4.55 0 4 0C3.45 0 3 0.45 3 1V3H2C0.9 3 0 3.9 0 5V19C0 20.1 0.9 21 2 21H22C23.1 21 24 20.1 24 19V5C24 3.9 23.1 3 22 3ZM2 19V8H15.5C15.78 8 16 7.78 16 7.5C16 7.22 15.78 7 15.5 7H2V5H22V7H18.5C18.22 7 18 7.22 18 7.5C18 7.78 18.22 8 18.5 8H22V19H2Z" fill="#C41D39"/>
<path d="M7 11H5C4.45 11 4 11.45 4 12C4 12.55 4.45 13 5 13H7C7.55 13 8 12.55 8 12C8 11.45 7.55 11 7 11Z" fill="#919497"/>
<path d="M13 11H11C10.45 11 10 11.45 10 12C10 12.55 10.45 13 11 13H13C13.55 13 14 12.55 14 12C14 11.45 13.55 11 13 11Z" fill="#919497"/>
<path d="M19 11H17C16.45 11 16 11.45 16 12C16 12.55 16.45 13 17 13H19C19.55 13 20 12.55 20 12C20 11.45 19.55 11 19 11Z" fill="#919497"/>
<path d="M7 15H5C4.45 15 4 15.45 4 16C4 16.55 4.45 17 5 17H7C7.55 17 8 16.55 8 16C8 15.45 7.55 15 7 15Z" fill="#919497"/>
<path d="M13 15H11C10.45 15 10 15.45 10 16C10 16.55 10.45 17 11 17H13C13.55 17 14 16.55 14 16C14 15.45 13.55 15 13 15Z" fill="#919497"/>
<path d="M19 15H17C16.45 15 16 15.45 16 16C16 16.55 16.45 17 17 17H19C19.55 17 20 16.55 20 16C20 15.45 19.55 15 19 15Z" fill="#919497"/>
</g>
<defs>
<clipPath id="clip0_2229_3933">
<rect width="24" height="21" fill="white"/>
</clipPath>
</defs>
</svg>
