<svg width="20" height="20" viewBox="0 0 20 20" fill="none" xmlns="http://www.w3.org/2000/svg">
<path d="M10 20C4.49 20 0 15.51 0 10C0 4.49 4.49 0 10 0C15.51 0 20 4.49 20 10C20 15.51 15.51 20 10 20ZM10 1C5.04 1 1 5.04 1 10C1 14.96 5.04 19 10 19C14.96 19 19 14.96 19 10C19 5.04 14.96 1 10 1Z" fill="#C41D39"/>
<path d="M9.99992 13.0801C9.44992 13.0801 8.99992 12.6301 8.99992 12.0801V10.5901C8.99992 10.0401 9.44992 9.59005 9.99992 9.59005C11.0099 9.59005 11.8299 8.77005 11.8299 7.76005C11.8299 6.75005 11.0099 5.93005 9.99992 5.93005C8.98992 5.93005 8.16992 6.75005 8.16992 7.76005C8.16992 8.31005 7.71992 8.76005 7.16992 8.76005C6.61992 8.76005 6.16992 8.31005 6.16992 7.76005C6.16992 5.65005 7.88992 3.93005 9.99992 3.93005C12.1099 3.93005 13.8299 5.65005 13.8299 7.76005C13.8299 9.53005 12.6299 11.0201 10.9999 11.4601V12.0801C10.9999 12.6301 10.5499 13.0801 9.99992 13.0801Z" fill="#C41D39"/>
<path d="M10 16C10.5523 16 11 15.5523 11 15C11 14.4477 10.5523 14 10 14C9.44772 14 9 14.4477 9 15C9 15.5523 9.44772 16 10 16Z" fill="#C41D39"/>
</svg>
