<svg width="129" height="20" viewBox="0 0 129 20" fill="none" xmlns="http://www.w3.org/2000/svg">
<g clip-path="url(#clip0_149_2775)">
<path d="M25.3115 7.63767C25.3478 8.89877 25.2298 10.1465 24.8575 11.3588C24.2446 13.3881 22.8371 14.556 20.735 14.9512C19.2277 15.2354 17.7158 15.2309 16.1994 14.9911C13.7159 14.5915 12.2721 13.1439 11.7636 10.7904C11.3096 8.69895 11.3005 6.58527 11.75 4.48936C12.2858 1.97603 13.7659 0.661646 16.4037 0.275322C17.7794 0.0710596 19.1505 0.084381 20.5216 0.301965C23.1913 0.723813 24.7576 2.37124 25.1617 5.14211C25.2843 5.97248 25.3297 6.80729 25.3115 7.64211V7.63767ZM21.4161 7.66431C21.4206 6.7096 21.3979 5.75934 21.1436 4.82683C20.8803 3.8588 20.3446 3.41919 19.3276 3.34815C18.7601 3.30818 18.188 3.30374 17.6205 3.33038C16.3674 3.39255 15.7908 3.8588 15.5819 5.05774C15.2914 6.74069 15.2914 8.43696 15.5774 10.1199C15.7817 11.3322 16.381 11.8561 17.6205 11.9849C18.2334 12.0471 18.8463 12.0382 19.4638 11.9316C20.3673 11.7807 20.8985 11.2656 21.13 10.4263C21.3797 9.52044 21.4115 8.59237 21.407 7.65987L21.4161 7.66431Z" fill="#2A66B8"/>
<path d="M48.9747 10.0488C49.1881 9.52929 49.3697 9.13409 49.524 8.72557C50.4548 6.26109 51.3129 3.76997 51.9848 1.22557C52.1165 0.72823 52.3117 0.537288 52.8475 0.563931C53.701 0.608336 54.5636 0.599455 55.4172 0.563931C56.012 0.541729 56.0982 0.737111 55.9302 1.26109C54.7271 5.0888 53.3242 8.84102 51.7896 12.5488C50.8271 14.8757 49.8192 17.1847 48.6705 19.436C48.4616 19.849 48.2119 20.0089 47.7352 19.9867C46.7863 19.9467 45.8329 19.9511 44.8794 19.9867C44.2347 20.0089 44.203 19.7868 44.4754 19.2984C45.1836 18.0328 45.8465 16.7451 46.5638 15.484C46.8045 15.0577 46.809 14.6936 46.6365 14.2407C45.002 9.9245 43.3903 5.59946 41.7694 1.27885C41.4925 0.537288 41.497 0.537288 42.3142 0.532848C43.1451 0.532848 43.9805 0.55505 44.8113 0.523967C45.2654 0.506205 45.4651 0.661622 45.624 1.08791C46.6274 3.8499 47.6626 6.59413 48.6932 9.34723C48.7613 9.53374 48.843 9.72024 48.9747 10.04V10.0488Z" fill="#EF2B56"/>
<path d="M94.286 10.0444C95.2712 7.73978 96.0248 5.51509 96.7104 3.27264C96.9329 2.53995 97.1463 1.79839 97.3415 1.05683C97.4323 0.706029 97.6003 0.563933 97.9817 0.572814C98.8625 0.599457 99.7432 0.617219 100.624 0.572814C101.323 0.53729 101.341 0.790398 101.169 1.35434C100.429 3.78329 99.598 6.18116 98.6899 8.55683C97.287 12.238 95.7933 15.8836 94.0045 19.4094C93.782 19.8446 93.5277 20.0222 93.0238 20C92.0476 19.96 91.0715 19.9778 90.0954 19.9911C89.6005 20 89.5051 19.8357 89.7367 19.4138C90.4359 18.1439 91.1033 16.8561 91.8206 15.5995C92.0976 15.111 92.1203 14.698 91.916 14.1652C90.2861 9.87121 88.7015 5.55949 87.0761 1.26997C86.8537 0.679386 86.9218 0.501766 87.5892 0.53729C88.42 0.581695 89.2554 0.581695 90.0863 0.53729C90.5812 0.510647 90.79 0.688267 90.9535 1.13232C91.9705 3.93427 93.0192 6.73178 94.0589 9.52486C94.1043 9.65363 94.1679 9.77352 94.2905 10.0488L94.286 10.0444Z" fill="#EF2B56"/>
<path d="M128.991 7.27799C128.991 9.30285 128.991 11.3277 128.991 13.3526C128.991 13.6679 129 13.9387 128.601 14.0631C126.203 14.7957 123.77 15.3286 121.241 15.1199C118.145 14.8624 116.669 13.508 116.338 10.5018C115.993 7.34903 116.247 4.17852 116.188 1.01244C116.179 0.608359 116.424 0.572835 116.742 0.577276C117.622 0.586157 118.503 0.608359 119.384 0.568395C119.906 0.546192 120.015 0.750455 120.011 1.21227C119.992 3.44584 120.002 5.67941 120.002 7.91298C120.002 8.70339 120.033 9.4938 120.247 10.2664C120.469 11.0569 121.014 11.492 121.818 11.5853C122.717 11.6918 123.62 11.6563 124.519 11.532C125.018 11.4609 125.173 11.2656 125.168 10.7638C125.141 7.6199 125.173 4.48047 125.141 1.3366C125.132 0.692729 125.309 0.484025 125.967 0.52843C126.771 0.581716 127.584 0.563954 128.392 0.52843C128.869 0.510668 128.996 0.674967 128.991 1.1279C128.968 3.17497 128.982 5.22204 128.982 7.27355L128.991 7.27799Z" fill="#EF2B56"/>
<path d="M84.388 7.63766C84.388 9.77798 84.3744 11.9183 84.3971 14.0586C84.4016 14.5293 84.2881 14.7291 83.766 14.7069C82.9351 14.667 82.0997 14.6625 81.2689 14.7069C80.7104 14.738 80.5424 14.5737 80.547 14.0142C80.5742 10.8526 80.547 7.68651 80.5742 4.52487C80.5788 3.96093 80.4516 3.73891 79.8387 3.78775C79.1532 3.84104 78.4585 3.84548 77.7729 3.78775C77.1827 3.73891 77.0556 4.00534 77.0102 4.49823C76.7287 7.63322 76.0795 10.7016 75.2713 13.7433C75.0806 14.4583 74.8037 14.8002 73.9864 14.7158C73.1647 14.6314 72.3247 14.6847 71.4893 14.7025C71.0716 14.7114 70.9491 14.6048 71.0807 14.1741C72.4019 9.88011 73.1102 5.47958 73.428 1.01688C73.4552 0.657201 73.5824 0.541748 73.9456 0.541748C77.2508 0.550629 80.5561 0.55507 83.8659 0.541748C84.3607 0.541748 84.388 0.785975 84.3834 1.15454C84.3744 3.31706 84.3834 5.47958 84.3834 7.64654L84.388 7.63766Z" fill="#EF2B56"/>
<path d="M64.1433 0.00444152C65.7687 0.00444152 67.1489 0.222026 68.511 0.577266C68.9514 0.692719 69.1148 0.865898 68.8697 1.30551C68.4974 1.98046 68.1387 2.6643 67.8163 3.36146C67.6211 3.78774 67.3623 3.87211 66.9219 3.74334C65.8187 3.42362 64.6927 3.32149 63.5395 3.47247C62.1366 3.65897 61.4056 4.24512 61.1968 5.59947C60.9834 6.95826 60.9561 8.33481 61.2512 9.69361C61.5691 11.159 62.35 11.794 63.8709 11.8739C65.1649 11.9449 66.4407 11.794 67.671 11.421C68.1932 11.2655 68.3975 11.3988 68.5473 11.8694C68.7652 12.5577 69.024 13.2327 69.2828 13.9032C69.3918 14.1874 69.3872 14.405 69.0376 14.4938C66.309 15.1865 63.5713 15.5551 60.829 14.6181C59.022 14.0009 57.9642 12.6599 57.4829 10.9014C56.9108 8.80106 56.87 6.66963 57.3966 4.55151C58.0459 1.94494 59.6122 0.568385 62.3 0.159859C62.981 0.0577275 63.6666 -0.0222015 64.1479 0.00444152H64.1433Z" fill="#EF2B56"/>
<path d="M31.7402 7.49113C31.6994 8.17497 31.772 8.79664 31.8674 9.41831C32.1171 11.0657 32.9979 11.8117 34.7004 11.8783C35.949 11.9272 37.1748 11.7762 38.3598 11.421C38.8774 11.2656 39.0772 11.381 39.2315 11.865C39.454 12.5755 39.7355 13.2682 40.017 13.9565C40.1532 14.2895 40.0942 14.4672 39.7173 14.5648C37.1067 15.2398 34.478 15.564 31.8401 14.7735C29.847 14.1741 28.6847 12.7576 28.1807 10.8259C27.6631 8.8366 27.6359 6.81174 28.0763 4.80907C28.6892 2.00268 30.4599 0.49735 33.3929 0.159872C35.3315 -0.0621527 37.2338 0.133229 39.1271 0.563957C39.6356 0.67941 39.8172 0.861471 39.5266 1.36769C39.1543 2.016 38.8138 2.68651 38.5096 3.36591C38.3144 3.80108 38.0465 3.87657 37.6107 3.74779C36.4575 3.40587 35.2816 3.31707 34.083 3.49024C32.8072 3.6723 32.0762 4.3517 31.8719 5.59948C31.7675 6.24335 31.6948 6.89166 31.7402 7.49557V7.49113Z" fill="#2A66B8"/>
<path d="M0.0132749 7.64654C0.0132749 5.50623 0.0268954 3.36147 0.00419454 1.22115C-0.000345639 0.728251 0.0904579 0.523989 0.65798 0.53287C3.74984 0.559513 6.84624 0.555072 9.94264 0.53287C10.5374 0.53287 10.6554 0.688287 10.4103 1.21227C10.1015 1.86502 9.82459 2.53553 9.57942 3.21493C9.4069 3.70338 9.12995 3.89433 8.58513 3.881C7.22761 3.84104 5.8701 3.88989 4.51713 3.85436C3.99047 3.84104 3.83156 3.97869 3.8361 4.50711C3.86334 7.67319 3.8361 10.8393 3.86334 14.0053C3.86788 14.6226 3.69536 14.8313 3.05973 14.7869C2.30152 14.7336 1.53423 14.7425 0.776024 14.7869C0.199422 14.8179 -0.00488581 14.667 0.00419454 14.0631C0.0405159 11.9227 0.0178151 9.77798 0.0178151 7.63766L0.0132749 7.64654Z" fill="#2A66B8"/>
<path d="M103.684 7.61101C103.684 5.47069 103.693 3.32593 103.675 1.18561C103.675 0.737122 103.738 0.523978 104.278 0.528419C107.398 0.555062 110.517 0.546181 113.631 0.532859C114.144 0.532859 114.276 0.679396 114.072 1.14565C113.745 1.89165 113.422 2.64654 113.132 3.4103C112.991 3.7833 112.75 3.88099 112.374 3.87655C110.943 3.85879 109.518 3.88987 108.088 3.85879C107.579 3.84991 107.452 4.01421 107.452 4.49378C107.47 7.63765 107.447 10.7815 107.475 13.921C107.479 14.5204 107.343 14.7513 106.694 14.7025C105.89 14.6448 105.073 14.6625 104.269 14.7025C103.793 14.7247 103.665 14.5604 103.67 14.1075C103.693 11.9405 103.679 9.77797 103.679 7.61101H103.684Z" fill="#EF2B56"/>
</g>
<defs>
<clipPath id="clip0_149_2775">
<rect width="129" height="20" fill="white"/>
</clipPath>
</defs>
</svg>
