<svg width="250" height="48" viewBox="0 0 250 48" fill="none" xmlns="http://www.w3.org/2000/svg">
<path d="M52.516 11.6751C52.516 10.8595 52.424 10.497 52.056 10.0438H57.3004C61.0726 10.0438 63.1888 11.6751 63.1888 14.5751C63.1888 17.5657 60.9806 19.3782 57.3004 19.3782H55.4602V21.9157C55.4602 22.7313 55.5522 23.0938 55.9203 23.5469H52.056C52.424 23.0938 52.516 22.7313 52.516 21.9157V11.6751ZM56.8403 11.6751H55.5522V17.7469H56.9323C59.0485 17.7469 60.1526 16.6594 60.1526 14.6657C60.0606 12.7626 59.0485 11.6751 56.8403 11.6751ZM69.3533 23.3657L65.0289 13.8501C64.5689 12.9438 64.2009 12.3095 63.7408 11.8563H67.9732C67.6972 12.4001 67.7892 13.1251 67.9732 13.6688L70.6414 19.8313L73.0336 13.5782C73.2176 13.0345 73.4016 12.3095 73.1256 11.7657H76.1618C75.7018 12.2188 75.4257 12.672 75.1497 13.4876L71.7455 22.0969C70.8254 24.4532 69.7213 26.5375 66.8691 26.5375C65.581 26.5375 64.5689 26.175 63.6488 25.3594L64.4769 23.7282C65.0289 24.5438 65.765 25.0875 66.9611 25.0875C67.9732 25.1782 68.8012 24.5438 69.3533 23.3657ZM81.9582 23.8188C78.738 23.8188 76.2538 21.825 76.2538 17.8376C76.2538 14.3938 78.83 11.7657 82.6943 11.7657C84.2584 11.7657 85.1785 12.1282 86.0066 12.1282C86.3746 12.1282 86.6506 12.0376 87.1106 11.8563L85.9146 14.3938C85.2705 13.7594 84.3504 13.1251 82.8783 13.1251C80.5781 13.1251 79.198 14.9376 79.198 17.8376C79.198 20.5563 80.2101 22.2782 82.6023 22.2782C84.2584 22.2782 85.6385 21.4625 86.4666 20.4657L87.0186 21.7344C85.6385 23.0938 84.3504 23.8188 81.9582 23.8188ZM93.3671 23.8188C90.1469 23.8188 87.6627 21.825 87.6627 17.8376C87.6627 14.3938 90.2389 11.7657 94.1032 11.7657C95.6673 11.7657 96.5874 12.1282 97.4154 12.1282C97.7835 12.1282 98.0595 12.0376 98.5195 11.8563L97.4154 14.4844C96.7714 13.8501 95.8513 13.2157 94.3792 13.2157C92.079 13.2157 90.6989 15.0282 90.6989 17.9282C90.6989 20.6469 91.711 22.3688 94.1032 22.3688C95.7593 22.3688 97.1394 21.5532 97.9675 20.5563L98.5195 21.825C97.1394 23.0938 95.7593 23.8188 93.3671 23.8188ZM103.12 17.6563L107.26 13.4876C107.996 12.7626 108.088 12.4907 108.088 11.947H111.769C110.848 12.4907 110.296 13.0345 109.652 13.6688L106.064 17.1126L109.928 21.7344C110.756 22.7313 111.216 23.0938 112.045 23.5469H107.352C107.352 23.0032 107.26 22.7313 106.8 22.1875L103.12 17.8376V22.0063C103.12 22.8219 103.212 23.1844 103.58 23.6375H99.8076C100.176 23.1844 100.268 22.8219 100.268 22.0063V13.6688C100.268 12.8532 100.176 12.4907 99.8076 12.0376H103.58C103.212 12.4907 103.12 12.8532 103.12 13.6688V17.6563ZM121.429 13.5782C121.429 12.7626 121.337 12.4001 120.969 11.947H124.742C124.373 12.4001 124.281 12.7626 124.281 13.5782V21.9157C124.281 22.7313 124.373 23.0938 124.742 23.5469H120.969C121.337 23.0938 121.429 22.7313 121.429 21.9157V16.2063L116.277 21.5532V21.9157C116.277 22.7313 116.369 23.0938 116.737 23.5469H112.965C113.333 23.0938 113.425 22.7313 113.425 21.9157V13.5782C113.425 12.7626 113.333 12.4001 112.965 11.947H116.737C116.369 12.4001 116.277 12.7626 116.277 13.5782V19.2875L121.429 13.9407V13.5782ZM135.414 13.5782C135.414 12.7626 135.322 12.4001 134.954 11.947H138.727C138.359 12.4001 138.267 12.7626 138.267 13.5782V21.9157C138.267 22.7313 138.359 23.0938 138.727 23.5469H134.954C135.322 23.0938 135.414 22.7313 135.414 21.9157V16.2063L130.262 21.5532V21.9157C130.262 22.7313 130.354 23.0938 130.722 23.5469H126.95C127.318 23.0938 127.41 22.7313 127.41 21.9157V13.5782C127.41 12.7626 127.318 12.4001 126.95 11.947H130.722C130.354 12.4001 130.262 12.7626 130.262 13.5782V19.2875L135.414 13.9407V13.5782ZM132.194 8.4126C131.918 8.77509 131.826 9.04697 131.826 9.31884C131.826 9.68134 132.102 10.0438 132.838 10.0438C133.666 10.0438 133.942 9.68134 133.942 9.31884C133.942 9.04697 133.85 8.77509 133.574 8.4126H134.678C134.862 8.68447 135.138 9.13759 135.138 9.50009C135.138 10.4063 134.31 10.9501 132.838 10.9501C131.366 10.9501 130.538 10.4063 130.538 9.50009C130.538 9.04697 130.814 8.59385 130.998 8.4126H132.194ZM157.22 12.9438C156.208 11.8563 155.012 11.4032 153.632 11.4032C150.78 11.4032 149.215 13.5782 149.215 16.8407C149.215 20.1032 150.503 22.1875 153.724 22.1875C155.38 22.1875 156.76 21.3719 157.772 20.2844L158.508 21.6438C157.036 22.9125 155.656 23.8188 152.896 23.8188C148.663 23.8188 145.903 21.2813 145.903 16.9313C145.903 13.0345 148.847 9.95322 153.264 9.95322C155.196 9.95322 156.024 10.3157 157.22 10.3157C157.772 10.3157 158.14 10.2251 158.692 9.95322L157.22 12.9438ZM160.992 13.397C159.796 13.397 159.152 13.4876 158.324 13.9407L159.244 11.8563H170.101L169.181 13.9407C168.813 13.5782 168.445 13.397 167.525 13.397H165.593V21.9157C165.593 22.7313 165.685 23.0938 166.053 23.5469H162.28C162.648 23.0938 162.74 22.7313 162.74 21.9157V13.397H160.992ZM177.094 21.1H171.849L171.573 21.7344C171.205 22.6407 171.113 22.9125 171.481 23.5469H168.537C168.997 23.0938 169.365 22.55 169.733 21.7344L173.597 12.9438C173.321 12.4907 173.137 12.3095 172.677 11.7657H176.173L180.498 21.6438C180.866 22.4594 181.142 22.9125 181.694 23.4563H177.462C177.83 22.7313 177.646 22.4594 177.37 21.6438L177.094 21.1ZM172.493 19.65H176.541L174.609 14.7563L172.493 19.65ZM191.263 18.2907H186.11V21.9157C186.11 22.7313 186.202 23.0938 186.57 23.5469H182.798C183.166 23.0938 183.258 22.7313 183.258 21.9157V13.5782C183.258 12.7626 183.166 12.4001 182.798 11.947H186.57C186.202 12.4001 186.11 12.7626 186.11 13.5782V16.7501H191.263V13.4876C191.263 12.672 191.171 12.3095 190.803 11.8563H194.575C194.207 12.3095 194.115 12.672 194.115 13.4876V21.825C194.115 22.6407 194.207 23.0032 194.575 23.4563H190.803C191.171 23.0032 191.263 22.6407 191.263 21.825V18.2907ZM206.628 20.8282C206.628 21.825 206.996 22.4594 208.1 22.7313V24.725C206.904 23.8188 206.168 23.5469 204.88 23.5469H198.715C197.519 23.5469 196.691 23.9094 195.495 24.725V22.7313C197.703 21.9157 198.071 20.375 198.071 18.1094V13.4876C198.071 12.672 197.979 12.3095 197.611 11.8563H206.996C206.628 12.3095 206.536 12.672 206.536 13.4876L206.628 20.8282ZM200.003 18.3813C200.003 20.1032 199.819 21.1907 199.083 22.0969H203.132C203.592 22.0969 203.684 21.825 203.684 21.4625V13.3063H200.463C200.003 13.3063 199.911 13.5782 199.911 13.9407V18.3813H200.003ZM217.393 21.1H212.148L211.872 21.7344C211.504 22.6407 211.412 22.9125 211.78 23.5469H208.836C209.296 23.0938 209.664 22.55 210.032 21.7344L213.896 12.9438C213.62 12.4907 213.436 12.3095 212.976 11.7657H216.473L220.797 21.6438C221.165 22.4594 221.441 22.9125 221.993 23.4563H217.761C218.129 22.7313 217.945 22.4594 217.669 21.6438L217.393 21.1ZM212.792 19.65H216.841L214.908 14.7563L212.792 19.65ZM227.697 11.947C231.286 11.947 233.126 13.3063 233.126 15.8438C233.126 18.3813 231.01 20.0125 227.697 20.0125H226.225V21.9157C226.225 22.7313 226.317 23.0938 226.685 23.5469H222.913C223.281 23.0938 223.373 22.7313 223.373 21.9157V13.5782C223.373 12.7626 223.281 12.4001 222.913 11.947H227.697ZM226.133 13.3063V18.6532H227.237C229.17 18.6532 230.182 17.7469 230.182 15.8438C230.182 14.0313 229.262 13.3063 227.237 13.3063H226.133ZM235.978 13.397C234.782 13.397 234.138 13.4876 233.31 13.9407L234.23 11.8563H245.087L244.167 13.9407C243.799 13.5782 243.431 13.397 242.511 13.397H240.578V21.9157C240.578 22.7313 240.67 23.0938 241.038 23.5469H237.266C237.634 23.0938 237.726 22.7313 237.726 21.9157V13.397H235.978ZM247.019 11.0407H247.203C247.387 11.0407 247.571 10.9501 247.571 10.7688C247.571 10.5876 247.479 10.497 247.203 10.497H247.019V11.0407ZM247.019 11.8563H246.743V10.3157C246.927 10.3157 247.019 10.2251 247.295 10.2251C247.571 10.2251 247.663 10.3157 247.755 10.3157C247.847 10.4063 247.939 10.497 247.939 10.6782C247.939 10.8595 247.755 10.9501 247.663 11.0407C247.847 11.1313 247.847 11.222 247.939 11.4032C248.031 11.6751 248.031 11.7657 248.031 11.7657H247.755C247.663 11.6751 247.663 11.5845 247.663 11.4032C247.663 11.222 247.479 11.1313 247.295 11.1313H247.111V11.8563H247.019ZM247.295 9.86259C246.651 9.86259 246.099 10.4063 246.099 11.0407C246.099 11.6751 246.651 12.2188 247.295 12.2188C247.939 12.2188 248.399 11.6751 248.399 11.0407C248.399 10.4063 247.939 9.86259 247.295 9.86259ZM247.295 9.59072C248.123 9.59072 248.767 10.2251 248.767 11.0407C248.767 11.8563 248.123 12.4907 247.295 12.4907C246.467 12.4907 245.823 11.8563 245.823 11.0407C245.823 10.2251 246.467 9.59072 247.295 9.59072ZM23.6258 43.4843C12.5849 43.4843 3.56824 34.7844 3.56824 24C3.56824 13.2157 12.5849 4.51574 23.6258 4.51574C34.6666 4.51574 43.6833 13.2157 43.6833 24C43.6833 34.7844 34.7586 43.4843 23.6258 43.4843ZM23.6258 2.25012C11.2968 2.25012 1.26807 11.947 1.26807 24C1.26807 36.0531 11.2968 45.7499 23.6258 45.7499C35.9547 45.7499 45.9835 36.0531 45.9835 24C46.0755 11.947 36.0467 2.25012 23.6258 2.25012ZM28.5942 31.6125C30.4343 33.5156 30.1583 37.1406 29.6062 38.8625C29.6062 38.9531 29.5142 39.1343 29.3302 39.225C28.3181 39.5875 27.03 39.8593 26.386 39.95C29.1462 37.4125 29.6062 33.7875 28.5942 31.6125ZM39.083 29.4375C36.5988 27.3531 33.5625 25.9031 30.8023 25.45C33.7466 26.7188 36.5068 29.6188 37.9789 32.4281C38.2549 31.975 38.8989 30.9781 39.267 29.8906C39.267 29.6188 39.175 29.4375 39.083 29.4375ZM40.2791 24C40.2791 23.8188 40.187 23.8188 40.187 23.7282C38.4389 23.0032 37.3348 22.8219 37.3348 22.8219C37.7949 22.6407 38.1629 22.0969 38.1629 21.825C37.0588 22.3688 35.7707 22.55 34.9426 22.4594C36.5068 23.0938 38.7149 24.1813 40.187 25.3594C40.2791 24.9063 40.2791 24.3625 40.2791 24ZM31.2624 29.8C31.9064 29.9813 32.7345 30.0719 33.2865 29.8C30.5263 29.075 28.9622 25.3594 22.7977 24.8157C22.5217 24.8157 21.8776 24.9063 22.2457 24.2719C22.6137 23.7282 25.0979 22.0969 25.0979 22.0969C24.6379 22.0969 22.5217 22.2782 21.8776 22.3688C21.2336 22.4594 21.1416 22.2782 21.0496 21.825C21.0496 21.825 19.7615 23.0032 20.4055 23.5469C20.4975 23.6375 20.7736 23.6375 21.0496 23.5469L22.1537 23.1844C22.1537 23.1844 22.2457 23.1844 22.2457 23.275C22.0617 23.4563 21.7856 24.0907 21.6936 24.3625C21.6016 24.725 21.5096 24.9063 22.1537 25.0875C22.7057 25.2688 25.5579 26.175 27.3061 27.2625C29.0542 28.4406 33.1945 31.5219 33.0105 37.4125C34.0226 36.7781 34.8506 36.0531 35.4027 35.5094C35.4947 35.4187 35.4947 35.2375 35.4947 35.1469C34.7586 33.425 33.1025 30.9781 31.2624 29.8ZM37.7029 17.5657C37.4268 18.4719 36.8748 18.9251 36.5068 19.0157C35.9547 19.1969 35.4027 19.0157 35.4027 19.0157L34.9426 19.4688C34.7586 19.65 34.5746 19.5594 34.6666 19.3782C34.6666 19.2875 34.6666 19.1063 34.5746 18.9251C34.3906 18.6532 34.2066 18.9251 34.0226 19.0157C33.7466 19.1063 33.7466 18.7438 33.7466 18.7438C32.3664 18.4719 31.7224 19.1063 31.7224 19.1063C32.7345 19.1969 33.1945 19.8313 33.2865 20.1032C33.3785 20.375 33.9306 20.375 34.2066 20.1938C34.2986 20.1032 34.4826 20.0125 34.4826 20.2844C34.4826 20.375 34.4826 20.4657 34.3906 20.6469C34.8506 20.9188 34.9426 20.9188 34.8506 21.1907C34.2986 22.0969 33.8386 21.9157 33.7466 21.9157C31.8144 21.1907 29.9743 20.9188 28.8702 20.9188L29.5142 20.2844C21.6936 20.2844 20.3135 21.1907 19.9455 21.7344C19.6695 22.0969 19.9455 22.6407 19.9455 22.6407C19.0254 22.8219 16.6332 23.1844 15.6212 24.1813C14.7011 24.9969 14.6091 26.8094 14.5171 27.5344C14.9771 27.0813 15.5292 26.8094 15.9892 26.5375C17.0933 26.0844 18.2894 26.175 19.8535 26.175C20.4975 26.175 20.8656 26.4469 21.0496 26.8094C21.2336 27.1719 20.7736 27.1719 20.4975 26.9906C19.1174 26.175 18.6574 27.7156 17.1853 27.2625C17.6453 27.8063 18.2894 27.8063 18.6574 27.7156C20.1295 27.1719 20.4975 27.7156 20.4975 27.8969C19.5775 27.8063 18.1054 28.4406 17.3693 28.5313C16.4492 28.7125 15.6212 28.7125 15.6212 28.7125C16.1732 29.4375 17.0933 29.4375 17.6453 29.4375C18.2894 29.4375 20.3135 29.2563 21.5096 29.4375C24.6379 29.7094 24.8219 32.5187 22.9817 34.2406C24.4538 33.8781 25.0059 32.5187 25.0059 32.5187C26.11 37.2312 21.6936 39.6781 18.0133 38.9531C16.2652 38.5906 14.8851 37.8656 13.873 37.1406C13.137 36.5969 12.4929 36.0531 12.3089 35.8719C14.7011 36.5062 18.2894 36.5062 20.7736 35.4187C16.0812 35.5094 12.861 34.3312 10.6528 33.1531C9.73271 32.7 9.5487 32.5187 9.18067 31.975C8.44462 30.7969 7.98458 29.7094 7.61655 28.0781C9.45669 29.6188 13.321 31.7031 15.2531 31.8844C10.3768 29.075 7.89257 25.0875 7.70856 24.6344C7.52455 24.2719 7.15652 23.9094 7.15652 23.0032C7.24852 21.825 7.61655 20.1032 8.07659 18.9251C8.62863 20.5563 10.1007 23.4563 11.8489 24.9063C10.1007 21.3719 9.82472 16.7501 9.91673 15.9344C9.91673 15.5719 10.0087 15.3001 10.2848 14.8469C10.7448 14.2126 11.7569 13.1251 12.7689 12.2188C12.5849 13.4876 12.2169 16.1157 12.6769 18.5626C13.321 14.6657 14.8851 11.6751 15.8972 10.3157C16.0812 10.0438 16.2652 9.86259 16.6332 9.68134C17.0933 9.40947 18.4734 8.86572 20.0375 8.50322C18.6574 9.40947 17.5533 11.222 17.1853 12.1282C21.7856 7.77822 26.202 7.86885 28.7782 6.69073C29.3302 6.50948 29.6062 6.87198 29.5142 7.23448C29.4222 7.59697 29.3302 8.32197 29.3302 8.32197C30.8943 8.68447 31.6304 9.40947 31.6304 9.40947C31.5384 9.22822 31.6304 8.86572 31.6304 8.86572C33.8386 10.7688 34.4826 12.2188 34.4826 13.3063C34.3906 14.3938 35.2187 14.9376 35.6787 15.2094C36.1387 15.4813 37.8869 16.4782 38.2549 16.7501C38.3469 16.8407 37.9789 17.3844 37.7029 17.5657ZM27.8581 7.86885C27.2141 8.23135 26.57 8.86572 26.11 9.77197C26.018 9.95322 26.202 10.1345 26.386 9.95322C26.938 9.68134 27.5821 9.50009 27.5821 9.50009C27.3981 9.04697 28.0421 8.23135 28.3181 7.86885C28.4101 7.77822 28.3181 7.59697 27.8581 7.86885ZM33.2865 12.4001C33.1025 13.5782 32.9185 13.4876 32.6425 13.397C32.1824 13.2157 31.2624 13.1251 30.8943 13.2157C31.8144 14.0313 32.4585 15.2094 32.4585 15.2094C32.5505 14.8469 32.3664 14.2126 32.1824 13.9407C32.0904 13.7594 32.1824 13.7594 32.3664 13.8501C32.4585 13.8501 32.7345 13.9407 32.9185 14.0313C33.2865 14.1219 33.2865 14.0313 33.3785 13.7594C33.3785 13.5782 33.4705 13.1251 33.2865 12.4001ZM21.8776 17.6563C22.0617 17.5657 22.7057 17.2938 23.0737 17.2032C23.0737 17.2032 22.7057 18.3813 22.7977 20.1938C23.4418 20.1032 24.1778 20.0125 24.9139 20.0125C23.7178 19.5594 23.8098 17.3844 24.6379 16.2969C24.9139 15.9344 24.6379 15.9344 24.2698 16.0251C23.9018 16.1157 23.6258 16.2063 23.2577 16.3876C23.2577 16.3876 23.4418 13.4876 26.018 11.222C23.6258 12.1282 21.7856 15.5719 21.8776 17.6563Z" fill="#C41D39"/>
<path d="M99.0723 31.7941C98.1522 31.7941 97.7842 31.8847 97.1402 32.2472L97.8762 30.6159H105.789L105.053 32.2472C104.777 31.9753 104.501 31.7941 103.857 31.7941H102.477V37.8659C102.477 38.5003 102.569 38.6815 102.845 39.044H100.084C100.36 38.6815 100.452 38.4097 100.452 37.8659V31.7941H99.0723ZM166.237 30.6159C168.906 30.6159 170.194 31.6128 170.194 33.5159C170.194 35.419 168.722 36.5972 166.237 36.5972H165.225V37.9565C165.225 38.5909 165.317 38.7722 165.593 39.1347H162.741C163.017 38.7722 163.109 38.5003 163.109 37.9565V31.7941C163.109 31.1597 163.017 30.9784 162.741 30.6159H166.237ZM165.225 31.7034V35.5097H165.869C167.25 35.5097 167.986 34.8753 167.986 33.5159C167.986 32.2472 167.342 31.7034 165.869 31.7034H165.225ZM116.094 34.7847C116.094 32.4284 117.842 30.4347 120.51 30.4347C123.27 30.4347 124.926 32.5191 124.926 34.7847C124.926 37.1409 123.178 39.1347 120.51 39.1347C117.842 39.1347 116.094 37.1409 116.094 34.7847ZM118.302 34.7847C118.302 37.3222 119.406 38.0472 120.51 38.0472C121.706 38.0472 122.718 37.3222 122.718 34.7847C122.718 32.1566 121.522 31.5222 120.51 31.5222C119.406 31.6128 118.302 32.2472 118.302 34.7847ZM171.114 34.7847C171.114 32.4284 172.862 30.4347 175.622 30.4347C178.382 30.4347 180.131 32.5191 180.131 34.7847C180.131 37.1409 178.382 39.1347 175.622 39.1347C172.862 39.2253 171.114 37.1409 171.114 34.7847ZM173.322 34.7847C173.322 37.3222 174.426 38.0472 175.53 38.0472C176.726 38.0472 177.738 37.3222 177.738 34.7847C177.738 32.1566 176.542 31.5222 175.53 31.5222C174.426 31.6128 173.322 32.2472 173.322 34.7847ZM128.331 35.2378V37.8659H130.999C131.827 37.8659 132.195 37.6847 132.655 37.2315L132.011 39.044H125.938C126.214 38.6815 126.306 38.5003 126.306 37.8659V31.7941C126.306 31.1597 126.214 30.9784 125.938 30.6159H132.379L131.643 32.2472C131.367 31.9753 131.091 31.7941 130.447 31.7941H128.331V34.0597H131.459L130.723 35.6909C130.447 35.419 130.171 35.2378 129.527 35.2378H128.331ZM72.7583 35.2378V37.8659H75.4265C76.2546 37.8659 76.6226 37.6847 77.0826 37.2315L76.4386 39.044H70.2741C70.5501 38.6815 70.6421 38.4097 70.6421 37.8659V31.7941C70.6421 31.1597 70.5501 30.9784 70.2741 30.6159H76.7146L76.0705 32.1566C75.7945 31.8847 75.5185 31.7034 74.8745 31.7034H72.7583V33.969H75.7945L75.0585 35.6003C74.7824 35.3284 74.5064 35.1472 73.8624 35.1472L72.7583 35.2378ZM65.4897 30.6159C68.0659 30.6159 69.446 31.6128 69.446 33.4253C69.446 35.2378 67.9739 36.5065 65.4897 36.5065H64.4777V37.8659C64.4777 38.5003 64.5697 38.6815 64.8457 39.044H62.0855C62.3615 38.6815 62.4535 38.4097 62.4535 37.8659V31.7941C62.4535 31.1597 62.3615 30.9784 62.0855 30.6159H65.4897ZM64.4777 31.7034V35.5097H65.1217C66.5018 35.5097 67.2379 34.8753 67.2379 33.5159C67.2379 32.2472 66.5938 31.7034 65.1217 31.7034H64.4777ZM152.896 35.419H151.24V37.8659C151.24 38.5003 151.332 38.6815 151.608 39.044H148.848C149.124 38.6815 149.216 38.4097 149.216 37.8659V31.7941C149.216 31.1597 149.124 30.9784 148.848 30.6159H151.608C151.332 30.9784 151.24 31.2503 151.24 31.7941V34.2409H152.896C153.172 32.1566 154.829 30.4347 157.313 30.4347C160.073 30.4347 161.821 32.5191 161.821 34.7847C161.821 37.1409 160.073 39.1347 157.313 39.1347C154.829 39.2253 153.172 37.5034 152.896 35.419ZM155.105 34.7847C155.105 37.3222 156.209 38.0472 157.313 38.0472C158.509 38.0472 159.521 37.3222 159.521 34.7847C159.521 32.1566 158.325 31.5222 157.313 31.5222C156.117 31.6128 155.105 32.2472 155.105 34.7847ZM54.6329 34.694L57.6691 31.7034C58.2212 31.1597 58.2212 30.9784 58.2212 30.5253H60.9814C60.3373 30.9784 59.8773 31.3409 59.4173 31.7941L56.8411 34.3315L59.6933 37.6847C60.3373 38.4097 60.6134 38.6815 61.2574 39.044H57.7611C57.7611 38.6815 57.7611 38.4097 57.3931 38.0472L54.6329 34.8753V37.8659C54.6329 38.5003 54.7249 38.6815 55.0009 39.044H52.2407C52.5167 38.6815 52.6088 38.4097 52.6088 37.8659V31.7941C52.6088 31.1597 52.5167 30.9784 52.2407 30.6159H55.0009C54.7249 30.9784 54.6329 31.2503 54.6329 31.7941V34.694ZM93.9199 31.7941C93.9199 31.1597 93.8279 30.9784 93.5519 30.6159H96.3121C96.0361 30.9784 95.9441 31.2503 95.9441 31.7941V37.8659C95.9441 38.5003 96.0361 38.6815 96.3121 39.044H93.5519C93.8279 38.6815 93.9199 38.4097 93.9199 37.8659V33.7878L90.2396 37.6847V37.9565C90.2396 38.5909 90.3316 38.7722 90.6077 39.1347H87.8474C88.1235 38.7722 88.2155 38.5003 88.2155 37.9565V31.8847C88.2155 31.2503 88.1235 31.0691 87.8474 30.7066H90.6077C90.3316 31.0691 90.2396 31.3409 90.2396 31.8847V35.9628L93.9199 32.0659V31.7941ZM112.873 35.2378H109.009V37.8659C109.009 38.5003 109.101 38.6815 109.377 39.044H106.617C106.893 38.6815 106.985 38.5003 106.985 37.8659V31.7941C106.985 31.1597 106.893 30.9784 106.617 30.6159H109.377C109.101 30.9784 109.009 31.2503 109.009 31.7941V34.1503H112.873V31.7941C112.873 31.1597 112.781 30.9784 112.505 30.6159H115.266C114.99 30.9784 114.898 31.2503 114.898 31.7941V37.8659C114.898 38.5003 114.99 38.6815 115.266 39.044H112.505C112.781 38.6815 112.873 38.5003 112.873 37.8659V35.2378ZM79.2908 31.9753C79.2908 31.3409 79.1988 31.0691 78.9228 30.7066H86.0993C85.8233 31.0691 85.7313 31.3409 85.7313 31.9753V37.8659C85.7313 38.5909 86.0993 39.1347 86.9274 39.4065V40.9471C85.9153 40.2221 85.0872 39.9503 84.1672 39.9503H79.9348C79.0148 39.9503 78.1867 40.2221 77.2666 40.9471V39.4065C79.0148 38.6815 79.2908 37.5034 79.2908 35.7815V31.9753ZM80.6709 35.7815C80.6709 37.1409 80.4869 38.0472 79.9348 38.7722H82.9711C83.3391 38.7722 83.4311 38.5003 83.4311 38.319V31.8847H81.1309C80.7629 31.8847 80.6709 32.1566 80.6709 32.3378V35.7815ZM144.156 33.8784H143.328V31.5222H145.444C146.088 31.5222 146.364 31.6128 146.64 31.8847L147.284 30.5253H140.936C141.212 30.8878 141.304 31.1597 141.304 31.7034V37.7753C141.304 38.4097 141.212 38.5909 140.936 38.9534H144.156C146.18 38.9534 147.744 38.319 147.744 36.4159C147.744 34.6034 146.272 33.8784 144.156 33.8784ZM143.972 38.0472H143.328V34.8753H143.972C145.076 34.8753 145.72 35.3284 145.72 36.4159C145.812 37.594 145.076 38.0472 143.972 38.0472Z" fill="#333333"/>
</svg>
