<svg width="24" height="24" viewBox="0 0 24 24" fill="none" xmlns="http://www.w3.org/2000/svg">
<path d="M12 4.18L20 9.14V20.01H4L4.02 9.13L12 4.18ZM12 2C11.82 2 11.64 2.05 11.49 2.14L2.97 7.42C2.37 7.78 2 8.43 2 9.13V20C2 21.1 2.9 22 4 22H20C21.1 22 22 21.1 22 20V9.13C22 8.43 21.63 7.78 21.03 7.42L12.51 2.14C12.35 2.04 12.17 2 12 2Z" fill="#C41D39"/>
<path d="M11.9998 16.0001C11.8298 16.0001 11.6698 15.9601 11.5098 15.8701L2.50977 10.8701L3.47977 9.12012L11.9898 13.8501L20.4998 9.12012L21.4698 10.8701L12.4698 15.8701C12.3198 15.9501 12.1498 16.0001 11.9798 16.0001H11.9998Z" fill="#C41D39"/>
<path d="M21 8H3V10H21V8Z" fill="#C41D39"/>
</svg>
