<svg width="266" height="47" viewBox="0 0 266 47" fill="none" xmlns="http://www.w3.org/2000/svg">
<path d="M104.807 31.7809C103.822 31.7809 103.427 31.8771 102.737 32.2623L103.526 30.5291H112.004L111.215 32.2623C110.919 31.9734 110.624 31.7809 109.934 31.7809H108.455V38.2322C108.455 38.9062 108.553 39.0988 108.849 39.484H105.892C106.188 39.0988 106.286 38.81 106.286 38.2322V31.7809H104.807ZM176.77 30.5291C179.629 30.5291 181.009 31.5883 181.009 33.6104C181.009 35.6324 179.432 36.8842 176.77 36.8842H175.686V38.3285C175.686 39.0025 175.785 39.1951 176.08 39.5803H173.024C173.32 39.1951 173.419 38.9062 173.419 38.3285V31.7809C173.419 31.1068 173.32 30.9143 173.024 30.5291H176.77ZM175.686 31.6846V35.7287H176.376C177.855 35.7287 178.643 35.0547 178.643 33.6104C178.643 32.2623 177.953 31.6846 176.376 31.6846H175.686ZM123.045 34.9584C123.045 32.4549 124.918 30.3365 127.776 30.3365C130.734 30.3365 132.508 32.5512 132.508 34.9584C132.508 37.4619 130.635 39.5803 127.776 39.5803C124.918 39.5803 123.045 37.4619 123.045 34.9584ZM125.411 34.9584C125.411 37.6545 126.594 38.4248 127.776 38.4248C129.058 38.4248 130.142 37.6545 130.142 34.9584C130.142 32.166 128.861 31.492 127.776 31.492C126.594 31.5883 125.411 32.2623 125.411 34.9584ZM181.995 34.9584C181.995 32.4549 183.868 30.3365 186.826 30.3365C189.783 30.3365 191.656 32.5512 191.656 34.9584C191.656 37.4619 189.783 39.5803 186.826 39.5803C183.868 39.6766 181.995 37.4619 181.995 34.9584ZM184.361 34.9584C184.361 37.6545 185.544 38.4248 186.727 38.4248C188.008 38.4248 189.093 37.6545 189.093 34.9584C189.093 32.166 187.811 31.492 186.727 31.492C185.544 31.5883 184.361 32.2623 184.361 34.9584ZM136.156 35.4398V38.2322H139.015C139.902 38.2322 140.296 38.0396 140.789 37.5582L140.099 39.484H133.593C133.888 39.0988 133.987 38.9062 133.987 38.2322V31.7809C133.987 31.1068 133.888 30.9143 133.593 30.5291H140.493L139.705 32.2623C139.409 31.9734 139.113 31.7809 138.423 31.7809H136.156V34.1881H139.507L138.719 35.9213C138.423 35.6324 138.127 35.4398 137.437 35.4398H136.156ZM76.6138 35.4398V38.2322H79.4726C80.3598 38.2322 80.7541 38.0396 81.247 37.5582L80.5569 39.484H73.9521C74.2479 39.0988 74.3465 38.81 74.3465 38.2322V31.7809C74.3465 31.1068 74.2479 30.9143 73.9521 30.5291H80.8527L80.1626 32.166C79.8669 31.8771 79.5712 31.6846 78.8811 31.6846H76.6138V34.0918H79.8669L79.0783 35.825C78.7825 35.5361 78.4868 35.3436 77.7967 35.3436L76.6138 35.4398ZM68.826 30.5291C71.5862 30.5291 73.0649 31.5883 73.0649 33.5141C73.0649 35.4398 71.4876 36.7879 68.826 36.7879H67.7416V38.2322C67.7416 38.9062 67.8402 39.0988 68.1359 39.484H65.1786C65.4743 39.0988 65.5729 38.81 65.5729 38.2322V31.7809C65.5729 31.1068 65.4743 30.9143 65.1786 30.5291H68.826ZM67.7416 31.6846V35.7287H68.4317C69.9104 35.7287 70.699 35.0547 70.699 33.6104C70.699 32.2623 70.009 31.6846 68.4317 31.6846H67.7416ZM162.476 35.6324H160.702V38.2322C160.702 38.9062 160.801 39.0988 161.096 39.484H158.139C158.435 39.0988 158.533 38.81 158.533 38.2322V31.7809C158.533 31.1068 158.435 30.9143 158.139 30.5291H161.096C160.801 30.9143 160.702 31.2031 160.702 31.7809V34.3807H162.476C162.772 32.166 164.547 30.3365 167.208 30.3365C170.166 30.3365 172.039 32.5512 172.039 34.9584C172.039 37.4619 170.166 39.5803 167.208 39.5803C164.547 39.6766 162.772 37.8471 162.476 35.6324ZM164.842 34.9584C164.842 37.6545 166.025 38.4248 167.208 38.4248C168.49 38.4248 169.574 37.6545 169.574 34.9584C169.574 32.166 168.293 31.492 167.208 31.492C165.927 31.5883 164.842 32.2623 164.842 34.9584ZM57.1936 34.8621L60.4468 31.6846C61.0382 31.1068 61.0382 30.9143 61.0382 30.4328H63.9956C63.3056 30.9143 62.8127 31.2994 62.3198 31.7809L59.5595 34.477L62.6155 38.0396C63.3056 38.81 63.6013 39.0988 64.2913 39.484H60.5453C60.5453 39.0988 60.5453 38.81 60.151 38.4248L57.1936 35.0547V38.2322C57.1936 38.9062 57.2922 39.0988 57.5879 39.484H54.6306C54.9263 39.0988 55.0249 38.81 55.0249 38.2322V31.7809C55.0249 31.1068 54.9263 30.9143 54.6306 30.5291H57.5879C57.2922 30.9143 57.1936 31.2031 57.1936 31.7809V34.8621ZM99.287 31.7809C99.287 31.1068 99.1885 30.9143 98.8927 30.5291H101.85C101.554 30.9143 101.456 31.2031 101.456 31.7809V38.2322C101.456 38.9062 101.554 39.0988 101.85 39.484H98.8927C99.1885 39.0988 99.287 38.81 99.287 38.2322V33.8992L95.3439 38.0396V38.3285C95.3439 39.0025 95.4424 39.1951 95.7382 39.5803H92.7808C93.0765 39.1951 93.1751 38.9062 93.1751 38.3285V31.8771C93.1751 31.2031 93.0765 31.0105 92.7808 30.6254H95.7382C95.4424 31.0105 95.3439 31.2994 95.3439 31.8771V36.2102L99.287 32.0697V31.7809ZM119.594 35.4398H115.454V38.2322C115.454 38.9062 115.553 39.0988 115.848 39.484H112.891C113.187 39.0988 113.285 38.9062 113.285 38.2322V31.7809C113.285 31.1068 113.187 30.9143 112.891 30.5291H115.848C115.553 30.9143 115.454 31.2031 115.454 31.7809V34.2844H119.594V31.7809C119.594 31.1068 119.496 30.9143 119.2 30.5291H122.157C121.862 30.9143 121.763 31.2031 121.763 31.7809V38.2322C121.763 38.9062 121.862 39.0988 122.157 39.484H119.2C119.496 39.0988 119.594 38.9062 119.594 38.2322V35.4398ZM83.6129 31.9734C83.6129 31.2994 83.5143 31.0105 83.2186 30.6254H90.9078C90.612 31.0105 90.5135 31.2994 90.5135 31.9734V38.2322C90.5135 39.0025 90.9078 39.5803 91.795 39.8691V41.5061C90.7106 40.7357 89.8234 40.4469 88.8376 40.4469H84.303C83.3172 40.4469 82.43 40.7357 81.4442 41.5061V39.8691C83.3172 39.0988 83.6129 37.8471 83.6129 36.0176V31.9734ZM85.0916 36.0176C85.0916 37.4619 84.8944 38.4248 84.303 39.1951H87.5561C87.9504 39.1951 88.049 38.9062 88.049 38.7137V31.8771H85.5845C85.1902 31.8771 85.0916 32.166 85.0916 32.3586V36.0176ZM153.111 33.9955H152.224V31.492H154.492C155.182 31.492 155.477 31.5883 155.773 31.8771L156.463 30.4328H149.661C149.957 30.818 150.055 31.1068 150.055 31.6846V38.1359C150.055 38.81 149.957 39.0025 149.661 39.3877H153.111C155.28 39.3877 156.956 38.7137 156.956 36.6916C156.956 34.7658 155.379 33.9955 153.111 33.9955ZM152.914 38.4248H152.224V35.0547H152.914C154.097 35.0547 154.787 35.5361 154.787 36.6916C154.886 37.9434 154.097 38.4248 152.914 38.4248ZM54.9263 10.4047C54.9263 9.53809 54.8277 9.15293 54.4334 8.67148H60.0524C64.0942 8.67148 66.3615 10.4047 66.3615 13.4859C66.3615 16.6635 63.9956 18.5893 60.0524 18.5893H58.0808V21.2854C58.0808 22.152 58.1794 22.5371 58.5737 23.0186H54.4334C54.8277 22.5371 54.9263 22.152 54.9263 21.2854V10.4047ZM59.5595 10.4047H58.1794V16.8561H59.6581C61.9254 16.8561 63.1084 15.7006 63.1084 13.5822C63.0098 11.5602 61.9254 10.4047 59.5595 10.4047ZM72.9663 22.826L68.3331 12.7156C67.8402 11.7527 67.4459 11.0787 66.953 10.5973H71.4876C71.1919 11.175 71.2905 11.9453 71.4876 12.523L74.3465 19.0707L76.9095 12.4268C77.1067 11.849 77.3038 11.0787 77.0081 10.501H80.2612C79.7683 10.9824 79.4726 11.4639 79.1768 12.3305L75.5294 21.4779C74.5436 23.9814 73.3607 26.1961 70.3047 26.1961C68.9246 26.1961 67.8402 25.8109 66.8544 24.9443L67.7416 23.2111C68.3331 24.0777 69.1217 24.6555 70.4033 24.6555C71.4876 24.7518 72.3749 24.0777 72.9663 22.826ZM86.4717 23.3074C83.0214 23.3074 80.3598 21.1891 80.3598 16.9523C80.3598 13.2934 83.12 10.501 87.2603 10.501C88.9362 10.501 89.922 10.8861 90.8092 10.8861C91.2035 10.8861 91.4993 10.7898 91.9922 10.5973L90.7106 13.2934C90.0206 12.6193 89.0348 11.9453 87.4575 11.9453C84.993 11.9453 83.5143 13.8711 83.5143 16.9523C83.5143 19.841 84.5987 21.6705 87.1618 21.6705C88.9362 21.6705 90.4149 20.8039 91.3021 19.7447L91.8936 21.0928C90.4149 22.5371 89.0348 23.3074 86.4717 23.3074ZM98.6956 23.3074C95.2453 23.3074 92.5836 21.1891 92.5836 16.9523C92.5836 13.2934 95.3439 10.501 99.4842 10.501C101.16 10.501 102.146 10.8861 103.033 10.8861C103.427 10.8861 103.723 10.7898 104.216 10.5973L103.033 13.3896C102.343 12.7156 101.357 12.0416 99.7799 12.0416C97.3154 12.0416 95.8368 13.9674 95.8368 17.0486C95.8368 19.9373 96.9211 21.7668 99.4842 21.7668C101.259 21.7668 102.737 20.9002 103.625 19.841L104.216 21.1891C102.737 22.5371 101.259 23.3074 98.6956 23.3074ZM109.145 16.7598L113.581 12.3305C114.37 11.5602 114.468 11.2713 114.468 10.6936H118.411C117.426 11.2713 116.834 11.849 116.144 12.523L112.3 16.182L116.44 21.0928C117.327 22.152 117.82 22.5371 118.707 23.0186H113.68C113.68 22.4408 113.581 22.152 113.088 21.5742L109.145 16.9523V21.3816C109.145 22.2482 109.244 22.6334 109.638 23.1148H105.596C105.99 22.6334 106.089 22.2482 106.089 21.3816V12.523C106.089 11.6564 105.99 11.2713 105.596 10.7898H109.638C109.244 11.2713 109.145 11.6564 109.145 12.523V16.7598ZM128.762 12.4268C128.762 11.5602 128.664 11.175 128.269 10.6936H132.311C131.917 11.175 131.818 11.5602 131.818 12.4268V21.2854C131.818 22.152 131.917 22.5371 132.311 23.0186H128.269C128.664 22.5371 128.762 22.152 128.762 21.2854V15.2191L123.242 20.9002V21.2854C123.242 22.152 123.34 22.5371 123.735 23.0186H119.693C120.087 22.5371 120.186 22.152 120.186 21.2854V12.4268C120.186 11.5602 120.087 11.175 119.693 10.6936H123.735C123.34 11.175 123.242 11.5602 123.242 12.4268V18.493L128.762 12.8119V12.4268ZM143.746 12.4268C143.746 11.5602 143.648 11.175 143.253 10.6936H147.295C146.901 11.175 146.802 11.5602 146.802 12.4268V21.2854C146.802 22.152 146.901 22.5371 147.295 23.0186H143.253C143.648 22.5371 143.746 22.152 143.746 21.2854V15.2191L138.226 20.9002V21.2854C138.226 22.152 138.324 22.5371 138.719 23.0186H134.677C135.071 22.5371 135.17 22.152 135.17 21.2854V12.4268C135.17 11.5602 135.071 11.175 134.677 10.6936H138.719C138.324 11.175 138.226 11.5602 138.226 12.4268V18.493L143.746 12.8119V12.4268ZM140.296 6.93828C140 7.32344 139.902 7.6123 139.902 7.90117C139.902 8.28633 140.197 8.67148 140.986 8.67148C141.873 8.67148 142.169 8.28633 142.169 7.90117C142.169 7.6123 142.07 7.32344 141.775 6.93828H142.958C143.155 7.22715 143.451 7.70859 143.451 8.09375C143.451 9.05664 142.563 9.63438 140.986 9.63438C139.409 9.63438 138.522 9.05664 138.522 8.09375C138.522 7.6123 138.817 7.13086 139.015 6.93828H140.296ZM167.11 11.7527C166.025 10.5973 164.744 10.1158 163.265 10.1158C160.209 10.1158 158.533 12.4268 158.533 15.8932C158.533 19.3596 159.913 21.5742 163.364 21.5742C165.138 21.5742 166.617 20.7076 167.701 19.5521L168.49 20.9965C166.912 22.3445 165.434 23.3074 162.476 23.3074C157.942 23.3074 154.984 20.6113 154.984 15.9895C154.984 11.849 158.139 8.5752 162.871 8.5752C164.941 8.5752 165.828 8.96035 167.11 8.96035C167.701 8.96035 168.095 8.86406 168.687 8.5752L167.11 11.7527ZM171.151 12.2342C169.87 12.2342 169.18 12.3305 168.293 12.8119L169.278 10.5973H180.911L179.925 12.8119C179.531 12.4268 179.136 12.2342 178.151 12.2342H176.08V21.2854C176.08 22.152 176.179 22.5371 176.573 23.0186H172.532C172.926 22.5371 173.024 22.152 173.024 21.2854V12.2342H171.151ZM188.403 20.4187H182.784L182.488 21.0928C182.094 22.0557 181.995 22.3445 182.389 23.0186H179.235C179.728 22.5371 180.122 21.9594 180.516 21.0928L184.657 11.7527C184.361 11.2713 184.164 11.0787 183.671 10.501H187.417L192.05 20.9965C192.445 21.8631 192.74 22.3445 193.332 22.9223H188.797C189.191 22.152 188.994 21.8631 188.699 20.9965L188.403 20.4187ZM183.474 18.8781H187.811L185.741 13.6785L183.474 18.8781ZM203.584 17.4338H198.064V21.2854C198.064 22.152 198.162 22.5371 198.556 23.0186H194.515C194.909 22.5371 195.008 22.152 195.008 21.2854V12.4268C195.008 11.5602 194.909 11.175 194.515 10.6936H198.556C198.162 11.175 198.064 11.5602 198.064 12.4268V15.7969H203.584V12.3305C203.584 11.4639 203.485 11.0787 203.091 10.5973H207.133C206.739 11.0787 206.64 11.4639 206.64 12.3305V21.1891C206.64 22.0557 206.739 22.4408 207.133 22.9223H203.091C203.485 22.4408 203.584 22.0557 203.584 21.1891V17.4338ZM220.047 20.1299C220.047 21.1891 220.441 21.8631 221.624 22.152V24.2703C220.343 23.3074 219.554 23.0186 218.174 23.0186H211.569C210.287 23.0186 209.4 23.4037 208.119 24.2703V22.152C210.485 21.2854 210.879 19.6484 210.879 17.2412V12.3305C210.879 11.4639 210.78 11.0787 210.386 10.5973H220.441C220.047 11.0787 219.948 11.4639 219.948 12.3305L220.047 20.1299ZM212.949 17.5301C212.949 19.3596 212.752 20.515 211.963 21.4779H216.301C216.794 21.4779 216.892 21.1891 216.892 20.8039V12.1379H213.442C212.949 12.1379 212.85 12.4268 212.85 12.8119V17.5301H212.949ZM231.581 20.4187H225.962L225.666 21.0928C225.271 22.0557 225.173 22.3445 225.567 23.0186H222.413C222.906 22.5371 223.3 21.9594 223.694 21.0928L227.835 11.7527C227.539 11.2713 227.342 11.0787 226.849 10.501H230.595L235.228 20.9965C235.622 21.8631 235.918 22.3445 236.51 22.9223H231.975C232.369 22.152 232.172 21.8631 231.876 20.9965L231.581 20.4187ZM226.652 18.8781H230.989L228.919 13.6785L226.652 18.8781ZM242.621 10.6936C246.466 10.6936 248.438 12.1379 248.438 14.834C248.438 17.5301 246.17 19.2633 242.621 19.2633H241.044V21.2854C241.044 22.152 241.143 22.5371 241.537 23.0186H237.495C237.89 22.5371 237.988 22.152 237.988 21.2854V12.4268C237.988 11.5602 237.89 11.175 237.495 10.6936H242.621ZM240.946 12.1379V17.8189H242.129C244.199 17.8189 245.283 16.8561 245.283 14.834C245.283 12.9082 244.297 12.1379 242.129 12.1379H240.946ZM251.494 12.2342C250.212 12.2342 249.522 12.3305 248.635 12.8119L249.621 10.5973H261.253L260.267 12.8119C259.873 12.4268 259.479 12.2342 258.493 12.2342H256.423V21.2854C256.423 22.152 256.521 22.5371 256.915 23.0186H252.874C253.268 22.5371 253.367 22.152 253.367 21.2854V12.2342H251.494ZM263.323 9.73066H263.52C263.717 9.73066 263.915 9.63437 263.915 9.4418C263.915 9.24922 263.816 9.15293 263.52 9.15293H263.323V9.73066ZM263.323 10.5973H263.027V8.96035C263.225 8.96035 263.323 8.86406 263.619 8.86406C263.915 8.86406 264.013 8.96035 264.112 8.96035C264.21 9.05664 264.309 9.15293 264.309 9.34551C264.309 9.53809 264.112 9.63437 264.013 9.73066C264.21 9.82695 264.21 9.92324 264.309 10.1158C264.408 10.4047 264.408 10.501 264.408 10.501H264.112C264.013 10.4047 264.013 10.3084 264.013 10.1158C264.013 9.92324 263.816 9.82695 263.619 9.82695H263.422V10.5973H263.323ZM263.619 8.47891C262.929 8.47891 262.337 9.05664 262.337 9.73066C262.337 10.4047 262.929 10.9824 263.619 10.9824C264.309 10.9824 264.802 10.4047 264.802 9.73066C264.802 9.05664 264.309 8.47891 263.619 8.47891ZM263.619 8.19004C264.506 8.19004 265.196 8.86406 265.196 9.73066C265.196 10.5973 264.506 11.2713 263.619 11.2713C262.732 11.2713 262.042 10.5973 262.042 9.73066C262.042 8.86406 262.732 8.19004 263.619 8.19004ZM23.9724 44.2021C12.1428 44.2021 2.48206 34.9584 2.48206 23.5C2.48206 12.0416 12.1428 2.79785 23.9724 2.79785C35.8019 2.79785 45.4627 12.0416 45.4627 23.5C45.4627 34.9584 35.9005 44.2021 23.9724 44.2021ZM23.9724 0.390625C10.7627 0.390625 0.0175781 10.6936 0.0175781 23.5C0.0175781 36.3064 10.7627 46.6094 23.9724 46.6094C37.182 46.6094 47.9272 36.3064 47.9272 23.5C48.0257 10.6936 37.2806 0.390625 23.9724 0.390625ZM29.2957 31.5883C31.2672 33.6104 30.9715 37.4619 30.38 39.2914C30.38 39.3877 30.2815 39.5803 30.0843 39.6766C28.9999 40.0617 27.6198 40.3506 26.9298 40.4469C29.8871 37.7508 30.38 33.8992 29.2957 31.5883ZM40.5337 29.2773C37.8721 27.0627 34.6189 25.5221 31.6616 25.0406C34.8161 26.3887 37.7735 29.4699 39.3508 32.4549C39.6465 31.9734 40.3366 30.9143 40.7309 29.7588C40.7309 29.4699 40.6323 29.2773 40.5337 29.2773ZM41.8152 23.5C41.8152 23.3074 41.7167 23.3074 41.7167 23.2111C39.8437 22.4408 38.6607 22.2482 38.6607 22.2482C39.1536 22.0557 39.5479 21.4779 39.5479 21.1891C38.365 21.7668 36.9849 21.9594 36.0976 21.8631C37.7735 22.5371 40.1394 23.6926 41.7167 24.9443C41.8152 24.4629 41.8152 23.8852 41.8152 23.5ZM32.1545 29.6625C32.8445 29.8551 33.7317 29.9514 34.3232 29.6625C31.3658 28.8922 29.69 24.9443 23.0852 24.3666C22.7894 24.3666 22.0994 24.4629 22.4937 23.7889C22.888 23.2111 25.5496 21.4779 25.5496 21.4779C25.0567 21.4779 22.7894 21.6705 22.0994 21.7668C21.4093 21.8631 21.3107 21.6705 21.2121 21.1891C21.2121 21.1891 19.832 22.4408 20.5221 23.0186C20.6207 23.1148 20.9164 23.1148 21.2121 23.0186L22.3951 22.6334C22.3951 22.6334 22.4937 22.6334 22.4937 22.7297C22.2965 22.9223 22.0008 23.5963 21.9022 23.8852C21.8036 24.2703 21.705 24.4629 22.3951 24.6555C22.9866 24.848 26.0425 25.8109 27.9155 26.9664C29.7886 28.2182 34.2246 31.492 34.0275 37.7508C35.1118 37.0768 35.9991 36.3064 36.5905 35.7287C36.6891 35.6324 36.6891 35.4398 36.6891 35.3436C35.9005 33.5141 34.126 30.9143 32.1545 29.6625ZM39.055 16.6635C38.7593 17.6264 38.1678 18.1078 37.7735 18.2041C37.182 18.3967 36.5905 18.2041 36.5905 18.2041L36.0976 18.6855C35.9005 18.8781 35.7033 18.7818 35.8019 18.5893C35.8019 18.493 35.8019 18.3004 35.7033 18.1078C35.5062 17.8189 35.309 18.1078 35.1118 18.2041C34.8161 18.3004 34.8161 17.9152 34.8161 17.9152C33.3374 17.6264 32.6474 18.3004 32.6474 18.3004C33.7317 18.3967 34.2246 19.0707 34.3232 19.3596C34.4218 19.6484 35.0133 19.6484 35.309 19.4559C35.4076 19.3596 35.6047 19.2633 35.6047 19.5521C35.6047 19.6484 35.6047 19.7447 35.5062 19.9373C35.9991 20.2262 36.0976 20.2262 35.9991 20.515C35.4076 21.4779 34.9147 21.2854 34.8161 21.2854C32.7459 20.515 30.7744 20.2262 29.5914 20.2262L30.2815 19.5521C21.9022 19.5521 20.4235 20.515 20.0292 21.0928C19.7335 21.4779 20.0292 22.0557 20.0292 22.0557C19.0434 22.2482 16.4803 22.6334 15.396 23.6926C14.4102 24.5592 14.3116 26.485 14.213 27.2553C14.7059 26.7738 15.2974 26.485 15.7903 26.1961C16.9732 25.7146 18.2548 25.8109 19.9306 25.8109C20.6207 25.8109 21.015 26.0998 21.2121 26.485C21.4093 26.8701 20.9164 26.8701 20.6207 26.6775C19.142 25.8109 18.6491 27.4479 17.0718 26.9664C17.5647 27.5441 18.2548 27.5441 18.6491 27.4479C20.2264 26.8701 20.6207 27.4479 20.6207 27.6404C19.6349 27.5441 18.0576 28.2182 17.269 28.3145C16.2832 28.507 15.396 28.507 15.396 28.507C15.9874 29.2773 16.9732 29.2773 17.5647 29.2773C18.2548 29.2773 20.4235 29.0848 21.705 29.2773C25.0567 29.5662 25.2539 32.5512 23.2823 34.3807C24.8596 33.9955 25.4511 32.5512 25.4511 32.5512C26.634 37.5582 21.9022 40.158 17.959 39.3877C16.086 39.0025 14.6073 38.2322 13.523 37.4619C12.7343 36.8842 12.0443 36.3064 11.8471 36.1139C14.4102 36.7879 18.2548 36.7879 20.9164 35.6324C15.8889 35.7287 12.4386 34.477 10.0727 33.2252C9.08688 32.7437 8.88972 32.5512 8.49541 31.9734C7.70677 30.7217 7.21387 29.5662 6.81956 27.833C8.79115 29.4699 12.9315 31.6846 15.0016 31.8771C9.77694 28.8922 7.11529 24.6555 6.91814 24.174C6.72098 23.7889 6.32666 23.4037 6.32666 22.4408C6.42524 21.1891 6.81956 19.3596 7.31245 18.1078C7.90393 19.841 9.4812 22.9223 11.3542 24.4629C9.4812 20.7076 9.18546 15.7969 9.28404 14.9303C9.28404 14.5451 9.38262 14.2562 9.67836 13.7748C10.1713 13.1008 11.2556 11.9453 12.34 10.9824C12.1428 12.3305 11.7485 15.1229 12.2414 17.7227C12.9315 13.5822 14.6073 10.4047 15.6917 8.96035C15.8889 8.67148 16.086 8.47891 16.4803 8.28633C16.9732 7.99746 18.4519 7.41973 20.1278 7.03457C18.6491 7.99746 17.4661 9.92324 17.0718 10.8861C22.0008 6.26426 26.7326 6.36055 29.4928 5.10879C30.0843 4.91621 30.38 5.30137 30.2815 5.68652C30.1829 6.07168 30.0843 6.84199 30.0843 6.84199C31.7601 7.22715 32.5488 7.99746 32.5488 7.99746C32.4502 7.80488 32.5488 7.41973 32.5488 7.41973C34.9147 9.4418 35.6047 10.9824 35.6047 12.1379C35.5062 13.2934 36.3934 13.8711 36.8863 14.16C37.3792 14.4488 39.2522 15.508 39.6465 15.7969C39.7451 15.8932 39.3508 16.4709 39.055 16.6635ZM28.507 6.36055C27.817 6.7457 27.1269 7.41973 26.634 8.38262C26.5354 8.5752 26.7326 8.76777 26.9298 8.5752C27.5212 8.28633 28.2113 8.09375 28.2113 8.09375C28.0141 7.6123 28.7042 6.7457 28.9999 6.36055C29.0985 6.26426 28.9999 6.07168 28.507 6.36055ZM34.3232 11.175C34.126 12.4268 33.9289 12.3305 33.6332 12.2342C33.1403 12.0416 32.1545 11.9453 31.7601 12.0416C32.7459 12.9082 33.436 14.16 33.436 14.16C33.5346 13.7748 33.3374 13.1008 33.1403 12.8119C33.0417 12.6193 33.1403 12.6193 33.3374 12.7156C33.436 12.7156 33.7317 12.8119 33.9289 12.9082C34.3232 13.0045 34.3232 12.9082 34.4218 12.6193C34.4218 12.4268 34.5204 11.9453 34.3232 11.175ZM22.0994 16.7598C22.2965 16.6635 22.9866 16.3746 23.3809 16.2783C23.3809 16.2783 22.9866 17.5301 23.0852 19.4559C23.7752 19.3596 24.5639 19.2633 25.3525 19.2633C24.071 18.7818 24.1695 16.4709 25.0567 15.3154C25.3525 14.9303 25.0567 14.9303 24.6624 15.0266C24.2681 15.1229 23.9724 15.2191 23.5781 15.4117C23.5781 15.4117 23.7752 12.3305 26.5354 9.92324C23.9724 10.8861 22.0008 14.5451 22.0994 16.7598Z" fill="white"/>
</svg>
