<svg width="106" height="102" viewBox="0 0 106 102" fill="none" xmlns="http://www.w3.org/2000/svg">
<path d="M52.9993 96.6875C26.8268 96.6875 5.4526 76.2875 5.4526 51C5.4526 25.7125 26.8268 5.3125 52.9993 5.3125C79.1717 5.3125 100.546 25.7125 100.546 51C100.546 76.2875 79.3898 96.6875 52.9993 96.6875ZM52.9993 0C23.7733 0 0 22.7375 0 51C0 79.2625 23.7733 102 52.9993 102C82.2252 102 105.999 79.2625 105.999 51C106.217 22.7375 82.4433 0 52.9993 0ZM64.7769 68.85C69.1389 73.3125 68.4846 81.8125 67.176 85.85C67.176 86.0625 66.9579 86.4875 66.5217 86.7C64.1226 87.55 61.0691 88.1875 59.5424 88.4C66.0855 82.45 67.176 73.95 64.7769 68.85ZM89.6407 63.75C83.7519 58.8625 76.5545 55.4625 70.0114 54.4C76.9907 57.375 83.5338 64.175 87.0235 70.7625C87.6778 69.7 89.2045 67.3625 90.0769 64.8125C90.0769 64.175 89.8588 63.75 89.6407 63.75ZM92.4761 51C92.4761 50.575 92.258 50.575 92.258 50.3625C88.114 48.6625 85.4967 48.2375 85.4967 48.2375C86.5873 47.8125 87.4597 46.5375 87.4597 45.9C84.8424 47.175 81.789 47.6 79.826 47.3875C83.5338 48.875 88.7683 51.425 92.258 54.1875C92.4761 53.125 92.4761 51.85 92.4761 51ZM71.1019 64.6C72.6286 65.025 74.5915 65.2375 75.9002 64.6C69.357 62.9 65.6493 54.1875 51.0363 52.9125C50.382 52.9125 48.8553 53.125 49.7277 51.6375C50.6001 50.3625 56.4889 46.5375 56.4889 46.5375C55.3984 46.5375 50.382 46.9625 48.8553 47.175C47.3286 47.3875 47.1104 46.9625 46.8923 45.9C46.8923 45.9 43.8389 48.6625 45.3656 49.9375C45.5837 50.15 46.238 50.15 46.8923 49.9375L49.5096 49.0875C49.5096 49.0875 49.7277 49.0875 49.7277 49.3C49.2915 49.725 48.6372 51.2125 48.4191 51.85C48.201 52.7 47.9829 53.125 49.5096 53.55C50.8182 53.975 57.5794 56.1 61.7234 58.65C65.8674 61.4125 75.6821 68.6375 75.2459 82.45C77.645 80.9625 79.6079 79.2625 80.9166 77.9875C81.1347 77.775 81.1347 77.35 81.1347 77.1375C79.3898 73.1 75.464 67.3625 71.1019 64.6ZM86.3692 35.9125C85.7148 38.0375 84.4062 39.1 83.5338 39.3125C82.2252 39.7375 80.9166 39.3125 80.9166 39.3125L79.826 40.375C79.3898 40.8 78.9536 40.5875 79.1717 40.1625C79.1717 39.95 79.1717 39.525 78.9536 39.1C78.5174 38.4625 78.0812 39.1 77.645 39.3125C76.9907 39.525 76.9907 38.675 76.9907 38.675C73.7191 38.0375 72.1924 39.525 72.1924 39.525C74.5915 39.7375 75.6821 41.225 75.9002 41.8625C76.1183 42.5 77.4269 42.5 78.0812 42.075C78.2993 41.8625 78.7355 41.65 78.7355 42.2875C78.7355 42.5 78.7355 42.7125 78.5174 43.1375C79.6079 43.775 79.826 43.775 79.6079 44.4125C78.2993 46.5375 77.2088 46.1125 76.9907 46.1125C72.4105 44.4125 68.0484 43.775 65.4312 43.775L66.9579 42.2875C48.4191 42.2875 45.1475 44.4125 44.2751 45.6875C43.6208 46.5375 44.2751 47.8125 44.2751 47.8125C42.0941 48.2375 36.4234 49.0875 34.0242 51.425C31.8432 53.3375 31.6251 57.5875 31.407 59.2875C32.4975 58.225 33.8061 57.5875 34.8966 56.95C37.5139 55.8875 40.3492 56.1 44.057 56.1C45.5837 56.1 46.4561 56.7375 46.8923 57.5875C47.3286 58.4375 46.238 58.4375 45.5837 58.0125C42.3122 56.1 41.2216 59.7125 37.732 58.65C38.8225 59.925 40.3492 59.925 41.2216 59.7125C44.7113 58.4375 45.5837 59.7125 45.5837 60.1375C43.4027 59.925 39.913 61.4125 38.1682 61.625C35.9871 62.05 34.0242 62.05 34.0242 62.05C35.3328 63.75 37.5139 63.75 38.8225 63.75C40.3492 63.75 45.1475 63.325 47.9829 63.75C55.3984 64.3875 55.8346 70.975 51.4725 75.0125C54.9622 74.1625 56.2708 70.975 56.2708 70.975C58.8881 82.025 48.4191 87.7625 39.6949 86.0625C35.5509 85.2125 32.2794 83.5125 29.8802 81.8125C28.1354 80.5375 26.6087 79.2625 26.1725 78.8375C31.8432 80.325 40.3492 80.325 46.238 77.775C35.1147 77.9875 27.4811 75.225 22.2466 72.4625C20.0656 71.4 19.6294 70.975 18.7569 69.7C17.0121 66.9375 15.9216 64.3875 15.0492 60.5625C19.4112 64.175 28.5716 69.0625 33.1518 69.4875C21.5923 62.9 15.7035 53.55 15.2673 52.4875C14.8311 51.6375 13.9587 50.7875 13.9587 48.6625C14.1768 45.9 15.0492 41.8625 16.1397 39.1C17.4483 42.925 20.938 49.725 25.082 53.125C20.938 44.8375 20.2837 34 20.5018 32.0875C20.5018 31.2375 20.7199 30.6 21.3742 29.5375C22.4647 28.05 24.8638 25.5 27.263 23.375C26.8268 26.35 25.9544 32.5125 27.0449 38.25C28.5716 29.1125 32.2794 22.1 34.6785 18.9125C35.1147 18.275 35.5509 17.85 36.4234 17.425C37.5139 16.7875 40.7854 15.5125 44.4932 14.6625C41.2216 16.7875 38.6044 21.0375 37.732 23.1625C48.6372 12.9625 59.1062 13.175 65.2131 10.4125C66.5217 9.9875 67.176 10.8375 66.9579 11.6875C66.7398 12.5375 66.5217 14.2375 66.5217 14.2375C70.2295 15.0875 71.9743 16.7875 71.9743 16.7875C71.7562 16.3625 71.9743 15.5125 71.9743 15.5125C77.2088 19.975 78.7355 23.375 78.7355 25.925C78.5174 28.475 80.4804 29.75 81.5709 30.3875C82.6614 31.025 86.8054 33.3625 87.6778 34C87.8959 34.2125 87.0235 35.4875 86.3692 35.9125ZM63.032 13.175C61.5053 14.025 59.9786 15.5125 58.8881 17.6375C58.67 18.0625 59.1062 18.4875 59.5424 18.0625C60.851 17.425 62.3777 17 62.3777 17C61.9415 15.9375 63.4682 14.025 64.1226 13.175C64.3407 12.9625 64.1226 12.5375 63.032 13.175ZM75.9002 23.8C75.464 26.5625 75.0277 26.35 74.3734 26.1375C73.2829 25.7125 71.1019 25.5 70.2295 25.7125C72.4105 27.625 73.9372 30.3875 73.9372 30.3875C74.1553 29.5375 73.7191 28.05 73.2829 27.4125C73.0648 26.9875 73.2829 26.9875 73.7191 27.2C73.9372 27.2 74.5916 27.4125 75.0278 27.625C75.9002 27.8375 75.9002 27.625 76.1183 26.9875C76.1183 26.5625 76.3364 25.5 75.9002 23.8ZM48.8553 36.125C49.2915 35.9125 50.8182 35.275 51.6906 35.0625C51.6906 35.0625 50.8182 37.825 51.0363 42.075C52.563 41.8625 54.3079 41.65 56.0527 41.65C53.2174 40.5875 53.4355 35.4875 55.3984 32.9375C56.0527 32.0875 55.3984 32.0875 54.526 32.3C53.6536 32.5125 52.9993 32.725 52.1268 33.15C52.1268 33.15 52.563 26.35 58.67 21.0375C52.9993 23.1625 48.6372 31.2375 48.8553 36.125Z" fill="#C41D39"/>
</svg>
