<svg width="24" height="24" viewBox="0 0 24 24" fill="none" xmlns="http://www.w3.org/2000/svg">
<path d="M12 2C15.31 2 18 4.69 18 8C18 11.8 15.03 17.19 12 21.33C8.97 17.19 6 11.8 6 8C6 4.69 8.69 2 12 2ZM12 0C7.58 0 4 3.58 4 8C4 13.64 9.19 21 11.21 23.61C11.41 23.87 11.71 24 12 24C12.29 24 12.59 23.87 12.79 23.61C14.81 21 20 13.64 20 8C20 3.58 16.42 0 12 0V0Z" fill="#C41D39"/>
<path d="M12 6C13.1 6 14 6.9 14 8C14 9.1 13.1 10 12 10C10.9 10 10 9.1 10 8C10 6.9 10.9 6 12 6ZM12 4C9.79 4 8 5.79 8 8C8 10.21 9.79 12 12 12C14.21 12 16 10.21 16 8C16 5.79 14.21 4 12 4Z" fill="#C41D39"/>
</svg>
