<svg width="31" height="40" viewBox="0 0 31 40" fill="none" xmlns="http://www.w3.org/2000/svg">
<path d="M9 7C9 4.79086 10.7909 3 13 3H25C27.2091 3 29 4.79086 29 7V33C29 35.2091 27.2091 37 25 37H13C10.7909 37 9 35.2091 9 33V7Z" fill="white" fill-opacity="0.5"/>
<path d="M25 3H13C10.79 3 9 4.79 9 7V33C9 35.21 10.79 37 13 37H25C27.21 37 29 35.21 29 33V7C29 4.79 27.21 3 25 3ZM27 33C27 34.1 26.1 35 25 35H13C11.9 35 11 34.1 11 33V7C11 5.9 11.9 5 13 5H25C26.1 5 27 5.9 27 7V33Z" fill="#C41D39"/>
<path d="M24.5 28H13.5C13.22 28 13 28.22 13 28.5C13 28.78 13.22 29 13.5 29H24.5C24.78 29 25 28.78 25 28.5C25 28.22 24.78 28 24.5 28Z" fill="#C41D39"/>
<path d="M17.85 6.15C17.65 5.95 17.34 5.95 17.14 6.15L12.15 11.15C11.95 11.35 11.95 11.66 12.15 11.86C12.25 11.96 12.38 12.01 12.5 12.01C12.62 12.01 12.76 11.96 12.85 11.86L17.85 6.85C18.05 6.65 18.05 6.34 17.85 6.14V6.15Z" fill="#919497"/>
<path d="M12.5002 8.99999C12.6302 8.99999 12.7602 8.94999 12.8502 8.84999L14.8502 6.84999C15.0502 6.64999 15.0502 6.33999 14.8502 6.13999C14.6502 5.93999 14.3402 5.93999 14.1402 6.13999L12.1402 8.13999C11.9402 8.33999 11.9402 8.64999 12.1402 8.84999C12.2402 8.94999 12.3702 8.99999 12.4902 8.99999H12.5002Z" fill="#919497"/>
<path d="M20 31H18C17.45 31 17 31.45 17 32C17 32.55 17.45 33 18 33H20C20.55 33 21 32.55 21 32C21 31.45 20.55 31 20 31Z" fill="#C41D39"/>
</svg>
