<svg width="16" height="16" viewBox="0 0 16 16" fill="none" xmlns="http://www.w3.org/2000/svg">
<path d="M15.7065 14.3005L13.3753 11.9693C14.3644 10.677 14.9062 9.10629 14.9062 7.45112C14.9062 5.45795 14.1308 3.58905 12.7242 2.17743C9.81645 -0.725336 5.08454 -0.725336 2.18178 2.1824C-0.725957 5.09014 -0.725957 9.81707 2.18178 12.7248C3.58843 14.1315 5.4623 14.9068 7.45547 14.9068C9.11064 14.9068 10.6813 14.3651 11.9736 13.3759L14.3048 15.7071C14.4986 15.9009 14.7521 16.0004 15.0056 16.0004C15.2591 16.0004 15.5126 15.9009 15.7065 15.7071C16.0942 15.3194 16.0942 14.6881 15.7065 14.3005ZM3.58346 11.3182C1.45112 9.18582 1.45112 5.71642 3.58346 3.58408C4.65211 2.52039 6.04882 1.98358 7.4505 1.98358C8.85217 1.98358 10.2489 2.51542 11.3175 3.58408C12.3862 4.65273 12.918 5.98979 12.918 7.45112C12.918 8.91244 12.3514 10.2843 11.3175 11.3182C10.2837 12.352 8.91182 12.9187 7.4505 12.9187C5.98917 12.9187 4.61732 12.352 3.58346 11.3182Z" fill="white"/>
</svg>
