<svg width="14" height="16" viewBox="0 0 14 16" fill="none" xmlns="http://www.w3.org/2000/svg">
<path d="M13.9862 14.8C13.7627 13.76 13.2549 12.79 12.5135 11.99C12.0158 11.46 11.4267 11.03 10.7767 10.7C12.1885 9.6 13.0924 7.9 13.0924 6C13.1026 2.69 10.3705 0 7.00866 0C3.64685 0 0.914745 2.69 0.914745 6C0.914745 7.9 1.81868 9.6 3.23043 10.7C2.58042 11.03 1.99134 11.46 1.49367 11.99C0.752241 12.78 0.244415 13.75 0.0209713 14.8C-0.0907505 15.34 0.254571 15.87 0.803024 15.98C0.874119 15.99 0.945215 16 1.01631 16C1.48351 16 1.91008 15.68 2.01165 15.2C2.15384 14.51 2.49916 13.87 2.98668 13.34C3.78904 12.49 4.93673 12 6.1352 12H7.87196C9.07043 12 10.2181 12.49 11.0205 13.34C11.5182 13.87 11.8533 14.51 11.9955 15.2C12.1072 15.74 12.6455 16.09 13.194 15.97C13.7424 15.86 14.0979 15.33 13.976 14.79L13.9862 14.8ZM7.00866 2C9.25325 2 11.0713 3.79 11.0713 6C11.0713 8.21 9.25325 10 7.00866 10C4.76407 10 2.94605 8.21 2.94605 6C2.94605 3.79 4.76407 2 7.00866 2Z" fill="#C41D39"/>
</svg>
