<svg width="200" height="28" viewBox="0 0 200 28" fill="none" xmlns="http://www.w3.org/2000/svg">
<g clip-path="url(#clip0_464_1388)">
<path d="M43.0906 0L34.5586 18.4857H37.4226L40.1025 12.6916H46.9728L49.6784 18.4857H52.4766L44.0551 0H43.0906ZM45.8244 10.1157H41.2937L43.5646 5.20508L45.8244 10.1157Z" fill="#E71F5F"/>
<path d="M65.1281 4.58496H61.5707L56.2685 9.51988V4.58496H53.7754V18.4856H56.2685V12.6901L56.3367 12.6282L62.03 18.4856H65.5637L58.1824 10.9995L65.1281 4.58496Z" fill="#E71F5F"/>
<path d="M76.9403 14.2798C76.4502 14.9551 75.809 15.5001 75.0705 15.8691C74.332 16.2382 73.5178 16.4204 72.6963 16.4006C71.8049 16.4135 70.9251 16.1935 70.14 15.7612C69.3983 15.3466 68.7839 14.7289 68.3655 13.9772C67.9396 13.2308 67.7154 12.3818 67.716 11.5174C67.7038 10.8805 67.8227 10.2482 68.0651 9.6615C68.3075 9.07482 68.6679 8.54698 69.1228 8.11236C69.5929 7.6438 70.1509 7.27762 70.7631 7.03591C71.3752 6.7942 72.0289 6.68198 72.6846 6.70603C74.4984 6.70603 75.888 7.39679 76.9334 8.81809L77.1689 9.13802L79.1565 7.87327L78.9407 7.50372C78.5544 6.8301 78.0448 6.2391 77.4398 5.76313C76.7974 5.28089 76.0816 4.91044 75.3213 4.66669C74.4911 4.389 73.623 4.2483 72.7496 4.24988C71.4098 4.23296 70.0877 4.56446 68.9072 5.21332C67.7765 5.83913 66.8359 6.77145 66.1884 7.90814C65.536 9.03914 65.1944 10.3297 65.1999 11.6432C65.1868 12.5962 65.3686 13.5414 65.7335 14.4183C66.0983 15.2952 66.6383 16.0842 67.3187 16.7349C68.0235 17.4247 68.8551 17.9643 69.7653 18.3224C70.6755 18.6805 71.6462 18.8499 72.6209 18.8209C73.8967 18.8421 75.16 18.5614 76.3123 18.0005C77.373 17.4769 78.2769 16.6715 78.9298 15.6684L79.1676 15.3018L77.1835 13.9665L76.9403 14.2798Z" fill="#E71F5F"/>
<path d="M83.7838 13.5966V4.58496H81.291V18.4856H82.0955L90.7633 9.56245V18.4856H93.2564V4.58496H92.5216L83.7838 13.5966Z" fill="#E71F5F"/>
<path d="M102.501 4.24972C101.52 4.22763 100.546 4.42514 99.6472 4.82844C98.7486 5.23174 97.9469 5.8311 97.2982 6.58462C96.0755 7.94112 95.4071 9.72561 95.4303 11.5711C95.4157 13.4595 96.1233 15.2788 97.4018 16.6402C98.0673 17.3309 98.8602 17.8793 99.7345 18.2536C100.609 18.6279 101.547 18.8207 102.495 18.8207C103.442 18.8207 104.381 18.6279 105.255 18.2536C106.129 17.8793 106.922 17.3309 107.588 16.6402C108.866 15.2788 109.574 13.4595 109.559 11.5711C109.584 9.72152 108.915 7.93255 107.691 6.572C107.042 5.82264 106.242 5.22677 105.345 4.82575C104.449 4.42474 103.478 4.22818 102.501 4.24972ZM102.495 6.76575C103.094 6.75879 103.689 6.88091 104.24 7.12421C104.79 7.36751 105.285 7.72655 105.692 8.17807C106.132 8.62604 106.479 9.16101 106.711 9.75048C106.944 10.34 107.056 10.9716 107.043 11.6071C107.046 12.4544 106.835 13.2881 106.428 14.0264C106.045 14.7438 105.475 15.3388 104.782 15.7459C104.083 16.1438 103.295 16.3526 102.495 16.3526C101.694 16.3526 100.907 16.1438 100.207 15.7459C99.514 15.3388 98.9444 14.7438 98.5608 14.0264C98.1546 13.2881 97.9429 12.4544 97.9464 11.6071C97.9326 10.972 98.0448 10.3406 98.2761 9.7511C98.5074 9.16162 98.8531 8.62628 99.2922 8.17743C99.6992 7.72499 100.195 7.36543 100.746 7.12219C101.298 6.87895 101.894 6.7575 102.495 6.76574V6.76575Z" fill="#E71F5F"/>
<path d="M125.717 4.58496L120.871 14.2551L116.006 4.58496H114.995L110.354 18.4856H112.967L115.888 9.56582L120.449 18.4856H121.271L125.821 9.57807L128.753 18.4856H131.365L126.753 4.58496H125.717Z" fill="#E71F5F"/>
<path d="M143.846 6.2148C143.248 5.57715 142.527 5.07333 141.729 4.73514C140.931 4.39695 140.073 4.23172 139.21 4.24989C138.287 4.23866 137.371 4.4219 136.52 4.78821C135.669 5.15453 134.901 5.6961 134.263 6.37926C133.601 7.04689 133.078 7.84466 132.725 8.72458C132.373 9.6045 132.197 10.5484 132.21 11.4994C132.193 12.4589 132.365 13.412 132.714 14.3025C133.063 15.193 133.583 16.0027 134.244 16.6838C135.248 17.7426 136.552 18.4518 137.971 18.7112C139.39 18.9706 140.853 18.7671 142.153 18.1295C142.773 17.8127 143.343 17.4043 143.846 16.9173V18.4857H146.316V4.58499H143.846V6.2148ZM142.619 8.12904C143.06 8.58485 143.405 9.1278 143.634 9.72477C143.863 10.3217 143.971 10.9602 143.951 11.6012C143.964 12.4575 143.759 13.3024 143.358 14.0535C142.961 14.7731 142.377 15.3652 141.669 15.7633C141.143 16.0795 140.559 16.2841 139.953 16.3649C139.348 16.4458 138.732 16.4012 138.144 16.2339C137.555 16.0666 137.006 15.7799 136.528 15.3909C136.05 15.0019 135.653 14.5186 135.36 13.9695C134.946 13.2353 134.727 12.4025 134.726 11.5545C134.725 10.7065 134.942 9.8731 135.354 9.1378C135.746 8.40685 136.324 7.79814 137.027 7.3763C137.729 6.95447 138.53 6.73526 139.344 6.74195C139.955 6.72617 140.561 6.84145 141.125 7.08036C141.689 7.31927 142.198 7.67651 142.619 8.12904Z" fill="#E71F5F"/>
<path d="M148.145 6.90955H152.368V18.4856H154.861V6.90955H159.085V4.58496H148.145V6.90955Z" fill="#E71F5F"/>
<path d="M163.372 13.5966V4.58496H160.879V18.4856H161.683L170.351 9.56245V18.4856H172.844V4.58496H172.11L163.372 13.5966Z" fill="#E71F5F"/>
<path d="M186.134 4.58496H182.577L177.274 9.51988V4.58496H174.781V18.4856H177.274V12.6901L177.343 12.6282L183.035 18.4856H186.569L179.188 10.9995L186.134 4.58496Z" fill="#E71F5F"/>
<path d="M197.438 4.58499V6.2148C196.84 5.57715 196.119 5.07333 195.321 4.73514C194.523 4.39695 193.665 4.23172 192.802 4.24989C191.879 4.23866 190.963 4.4219 190.112 4.78822C189.261 5.15454 188.493 5.69611 187.855 6.37927C187.193 7.04686 186.67 7.84462 186.317 8.72454C185.964 9.60447 185.789 10.5484 185.802 11.4995C185.785 12.4589 185.956 13.412 186.306 14.3025C186.655 15.193 187.175 16.0027 187.835 16.6838C188.84 17.7426 190.144 18.4518 191.563 18.7112C192.982 18.9706 194.445 18.7671 195.745 18.1295C196.365 17.8127 196.935 17.4043 197.438 16.9173V18.4857H199.907V4.58499H197.438ZM197.543 11.6012C197.556 12.4575 197.351 13.3024 196.949 14.0535C196.553 14.7731 195.969 15.3652 195.261 15.7633C194.735 16.0795 194.151 16.2841 193.545 16.365C192.94 16.4458 192.324 16.4012 191.736 16.2339C191.147 16.0666 190.598 15.7799 190.12 15.3909C189.641 15.002 189.244 14.5186 188.952 13.9695C188.538 13.2353 188.319 12.4025 188.318 11.5545C188.317 10.7065 188.534 9.87314 188.946 9.1378C189.338 8.40682 189.916 7.79809 190.618 7.37625C191.321 6.95442 192.122 6.73522 192.936 6.74195C193.547 6.7262 194.153 6.84149 194.717 7.0804C195.281 7.3193 195.79 7.67653 196.211 8.12905C196.652 8.5849 196.997 9.12786 197.226 9.72482C197.455 10.3218 197.563 10.9602 197.543 11.6012Z" fill="#E71F5F"/>
<path d="M38.23 25.3072H35.043V21.8171H35.4817V24.8839H37.4654V21.8171H37.9041V24.8839H38.6436V25.8591H38.23V25.3072Z" fill="#526376"/>
<path d="M45.3121 24.1491L45.6818 24.348C45.5771 24.5688 45.4348 24.7687 45.2615 24.9383C45.1056 25.0861 44.9236 25.2021 44.7252 25.28C44.5094 25.3611 44.2808 25.4008 44.0509 25.3971C43.8063 25.4102 43.5619 25.3666 43.336 25.2697C43.1101 25.1728 42.9084 25.0249 42.746 24.8372C42.4418 24.4894 42.2741 24.0386 42.2755 23.5717C42.2711 23.142 42.4119 22.7239 42.6739 22.3881C42.8311 22.1752 43.0359 22.0041 43.2712 21.8891C43.5064 21.7741 43.7652 21.7186 44.0258 21.7272C44.2938 21.7183 44.56 21.775 44.8022 21.8927C45.0445 22.0105 45.2557 22.1858 45.4183 22.4041C45.6728 22.7464 45.8056 23.1674 45.7948 23.5975H42.7268C42.7216 23.9677 42.8578 24.3254 43.1064 24.5943C43.2226 24.7205 43.3633 24.8203 43.5195 24.8872C43.6757 24.9542 43.8439 24.9869 44.0132 24.9832C44.1861 24.9833 44.3576 24.952 44.5198 24.8906C44.6729 24.8354 44.8149 24.752 44.9387 24.6444C45.0867 24.4995 45.2126 24.3325 45.3121 24.1491ZM45.3121 23.2092C45.2679 23.0014 45.1807 22.8056 45.0564 22.6351C44.9368 22.4858 44.7848 22.3672 44.6125 22.2886C44.4308 22.2015 44.2326 22.1566 44.032 22.157C43.7138 22.1507 43.4052 22.2689 43.1691 22.4875C42.9723 22.6847 42.8342 22.935 42.7707 23.2092H45.3121Z" fill="#526376"/>
<path d="M52.2427 23.6263H50.259V25.3072H49.8203V21.8171H50.259V23.2028H52.2427V21.8171H52.6814V25.3072H52.2427L52.2427 23.6263Z" fill="#526376"/>
<path d="M56.4863 21.8171H58.7301V22.2052H57.8276V25.3072H57.3889V22.2052H56.4863V21.8171Z" fill="#526376"/>
<path d="M62.541 21.8171H62.9797V22.4586C63.1351 22.2311 63.3397 22.0433 63.5776 21.9101C63.8106 21.7863 64.0698 21.7235 64.3322 21.7272C64.5642 21.724 64.7944 21.7699 65.0083 21.8621C65.2221 21.9543 65.4151 22.0907 65.575 22.2629C65.7418 22.4308 65.8737 22.6317 65.9625 22.8534C66.0512 23.0751 66.0952 23.3129 66.0915 23.5524C66.0963 23.7943 66.0534 24.0348 65.9655 24.2594C65.8775 24.484 65.7463 24.6881 65.5796 24.8597C65.3282 25.1257 65.0014 25.304 64.6455 25.3694C64.2895 25.4347 63.9226 25.3837 63.5965 25.2237C63.3573 25.0986 63.147 24.9225 62.9797 24.7074V26.5838H62.541V21.8171ZM64.296 22.1603C64.1174 22.1564 63.94 22.1906 63.775 22.2606C63.61 22.3307 63.4611 22.4351 63.3376 22.5672C63.2096 22.7005 63.1091 22.8589 63.0422 23.0329C62.9753 23.2069 62.9435 23.3929 62.9485 23.5798C62.9447 23.8293 63.0045 24.0756 63.122 24.2943C63.2383 24.5064 63.4105 24.6807 63.619 24.7974C63.8271 24.9191 64.0626 24.9831 64.3022 24.9831C64.5362 24.9836 64.7658 24.9188 64.9665 24.7957C65.1747 24.6699 65.3459 24.4889 65.462 24.2719C65.5826 24.0575 65.6463 23.8146 65.6465 23.5672C65.6468 23.3198 65.5838 23.0767 65.4636 22.8621C65.349 22.6482 65.1799 22.47 64.9743 22.3464C64.7687 22.2229 64.5343 22.1585 64.296 22.1603V22.1603Z" fill="#526376"/>
<path d="M76.7213 21.7273C76.9674 21.7213 77.2119 21.7704 77.4375 21.8713C77.6631 21.9721 77.8644 22.1223 78.0274 22.3111C78.335 22.6605 78.5031 23.1156 78.4981 23.586C78.4931 24.0563 78.3156 24.5076 78.0006 24.8501C77.8331 25.0234 77.6336 25.161 77.4137 25.2549C77.1939 25.3488 76.958 25.3972 76.7198 25.3972C76.4816 25.3972 76.2457 25.3488 76.0259 25.2549C75.806 25.161 75.6066 25.0234 75.439 24.8501C75.1241 24.5082 74.9464 24.0574 74.9415 23.5875C74.9366 23.1176 75.1047 22.663 75.4124 22.3143C75.5753 22.1244 75.777 21.9734 76.0032 21.872C76.2293 21.7705 76.4745 21.7212 76.7213 21.7273ZM76.7199 22.1668C76.5436 22.165 76.3689 22.2008 76.207 22.2721C76.0451 22.3433 75.8995 22.4484 75.7795 22.5806C75.6518 22.712 75.5513 22.8682 75.4837 23.0401C75.4162 23.2121 75.3831 23.3961 75.3864 23.5814C75.3851 23.8286 75.4469 24.0719 75.5656 24.2872C75.6784 24.4982 75.846 24.6731 76.0501 24.7924C76.2549 24.9092 76.4854 24.9705 76.7199 24.9705C76.9543 24.9705 77.1849 24.9092 77.3897 24.7924C77.5936 24.6731 77.7612 24.4982 77.874 24.2872C77.9927 24.0719 78.0545 23.8286 78.0532 23.5814C78.0564 23.396 78.0232 23.2118 77.9553 23.0399C77.8875 22.8679 77.7866 22.7117 77.6585 22.5806C77.5387 22.4487 77.3933 22.3438 77.2317 22.2726C77.0701 22.2013 76.8958 22.1653 76.7199 22.1668V22.1668Z" fill="#526376"/>
<path d="M85.7831 20.396V20.8258C85.4259 20.8738 85.0662 20.8995 84.706 20.9028C84.4205 20.9079 84.1356 20.9331 83.8534 20.9782C83.6661 21.0105 83.4878 21.0838 83.3306 21.1931C83.1671 21.3177 83.0379 21.4835 82.9554 21.6743C82.8508 21.9009 82.7864 22.1448 82.7655 22.3945L82.7216 22.8853C82.8101 22.5303 83.0186 22.2189 83.3101 22.0063C83.5787 21.8217 83.8956 21.7244 84.2191 21.7273C84.4564 21.7216 84.6921 21.7673 84.911 21.8612C85.1298 21.9552 85.3269 22.0954 85.4892 22.2726C85.6541 22.4438 85.7841 22.6467 85.8717 22.8698C85.9592 23.0928 86.0026 23.3314 85.9993 23.5717C86.0026 23.81 85.9593 24.0466 85.872 24.2675C85.7847 24.4885 85.6551 24.6893 85.4908 24.8581C85.3275 25.034 85.13 25.1728 84.911 25.2656C84.692 25.3584 84.4565 25.4032 84.2195 25.3971C83.9699 25.4006 83.7223 25.3492 83.4938 25.2463C83.2652 25.1433 83.061 24.9913 82.8948 24.8004C82.5328 24.4026 82.3518 23.776 82.3517 22.9206C82.3298 22.4598 82.3976 21.9991 82.5511 21.5653C82.6479 21.3094 82.8048 21.0819 83.0079 20.9028C83.2078 20.7543 83.4338 20.6464 83.6735 20.5852C84.1769 20.4836 84.6892 20.4353 85.2023 20.4409C85.3966 20.4373 85.5905 20.4223 85.7831 20.396ZM85.5543 23.5813C85.557 23.3964 85.5233 23.2128 85.4553 23.0414C85.3873 22.87 85.2864 22.7144 85.1586 22.5837C85.0386 22.4521 84.8934 22.3472 84.7321 22.2755C84.5708 22.2038 84.3969 22.1668 84.221 22.1668C84.0452 22.1668 83.8712 22.2038 83.7099 22.2755C83.5486 22.3472 83.4034 22.4521 83.2834 22.5837C83.1555 22.7144 83.0546 22.87 82.9866 23.0414C82.9187 23.2128 82.885 23.3964 82.8877 23.5813C82.8842 23.763 82.9161 23.9435 82.9816 24.1123C83.0471 24.2812 83.1449 24.4349 83.2692 24.5646C83.3939 24.6932 83.5421 24.7953 83.7054 24.8649C83.8688 24.9346 84.044 24.9704 84.2209 24.9704C84.3979 24.9704 84.5731 24.9346 84.7364 24.8649C84.8998 24.7953 85.048 24.6932 85.1726 24.5646C85.297 24.4349 85.3948 24.2812 85.4603 24.1123C85.5259 23.9435 85.5578 23.763 85.5543 23.5813Z" fill="#526376"/>
<path d="M92.9077 25.3072H92.4406L91.2993 22.7657L90.1672 25.3072H89.6973L91.2607 21.8171H91.339L92.9077 25.3072Z" fill="#526376"/>
<path d="M100.184 21.8171V25.3072H99.7513V24.7074C99.5834 24.9227 99.3724 25.0988 99.1325 25.2237C98.8058 25.3837 98.4383 25.4347 98.0818 25.3694C97.7253 25.3041 97.3978 25.1258 97.1457 24.8597C96.9788 24.6883 96.8474 24.4841 96.7593 24.2595C96.6713 24.0349 96.6284 23.7944 96.6332 23.5524C96.6296 23.3128 96.6735 23.075 96.7624 22.8533C96.8513 22.6316 96.9833 22.4308 97.1503 22.2629C97.3105 22.0907 97.5036 21.9542 97.7177 21.862C97.9318 21.7698 98.1622 21.7239 98.3944 21.7272C98.6585 21.7234 98.9194 21.7862 99.1541 21.9101C99.3924 22.0424 99.597 22.2303 99.7513 22.4586V21.8171H100.184ZM98.4306 22.1603C98.192 22.1585 97.9574 22.2228 97.7516 22.3463C97.5457 22.4699 97.3763 22.6481 97.2614 22.8621C97.1411 23.0767 97.0779 23.3198 97.0782 23.5672C97.0784 23.8146 97.1421 24.0576 97.2628 24.2719C97.3791 24.4891 97.5506 24.6701 97.7592 24.7957C97.9611 24.9191 98.192 24.9839 98.4271 24.9831C98.6666 24.9833 98.9019 24.9192 99.1097 24.7974C99.3177 24.6805 99.4896 24.5062 99.6058 24.2943C99.7233 24.0756 99.7831 23.8293 99.7793 23.5798C99.7844 23.3928 99.7524 23.2068 99.6854 23.0327C99.6185 22.8587 99.5178 22.7004 99.3896 22.5672C99.266 22.4351 99.1169 22.3307 98.9518 22.2607C98.7868 22.1906 98.6093 22.1564 98.4306 22.1603Z" fill="#526376"/>
<path d="M105.901 23.7322H105.132C104.991 23.7441 104.849 23.7257 104.716 23.6781C104.583 23.6306 104.46 23.5551 104.357 23.4563C104.179 23.2438 104.089 22.9689 104.105 22.6896V21.8171H104.535V22.449C104.535 22.8554 104.591 23.1073 104.703 23.2045C104.867 23.3169 105.064 23.3684 105.26 23.3504H105.901V21.8171H106.34V25.3072H105.901V23.7322Z" fill="#526376"/>
<path d="M112.95 23.6263H110.966V25.3072H110.527V21.8171H110.966V23.2028H112.95V21.8171H113.388V25.3072H112.95V23.6263Z" fill="#526376"/>
<path d="M118.01 23.1997H118.427C118.69 23.192 118.953 23.2189 119.209 23.2799C119.405 23.3391 119.576 23.4638 119.695 23.6343C119.842 23.8356 119.914 24.0841 119.897 24.3348C119.88 24.5854 119.777 24.8217 119.605 25.0008C119.483 25.1108 119.342 25.1946 119.188 25.2473C119.034 25.2999 118.872 25.3203 118.71 25.3072H117.574V21.8171H118.01L118.01 23.1997ZM118.026 23.6103V24.9287H118.531C119.126 24.9287 119.423 24.7149 119.423 24.2872C119.422 24.1609 119.389 24.0371 119.327 23.9278C119.267 23.8132 119.167 23.7252 119.048 23.6808C118.836 23.6227 118.618 23.5989 118.399 23.6103L118.026 23.6103ZM120.504 21.8171H120.943V25.3072H120.504V21.8171Z" fill="#526376"/>
<path d="M124.7 21.8171H125.227L126.134 23.0938L127.031 21.8171H127.558L126.398 23.4659L127.706 25.3072H127.171L126.133 23.8414L125.102 25.3072H124.578L125.87 23.469L124.7 21.8171Z" fill="#526376"/>
<path d="M135.982 21.8171H138.226V22.2052H137.323V25.3072H136.885V22.2052H135.982L135.982 21.8171Z" fill="#526376"/>
<path d="M144.9 24.1491L145.27 24.348C145.165 24.5688 145.023 24.7687 144.849 24.9383C144.693 25.0861 144.511 25.2021 144.313 25.28C144.097 25.3611 143.869 25.4008 143.639 25.3971C143.394 25.4102 143.15 25.3666 142.924 25.2697C142.698 25.1727 142.496 25.0249 142.334 24.8372C142.029 24.4894 141.862 24.0386 141.863 23.5717C141.859 23.142 142 22.7239 142.262 22.3881C142.419 22.1752 142.624 22.004 142.859 21.889C143.094 21.774 143.353 21.7186 143.613 21.7272C143.881 21.7183 144.148 21.775 144.39 21.8928C144.632 22.0105 144.843 22.1858 145.006 22.4041C145.261 22.7464 145.393 23.1674 145.382 23.5975H142.315C142.309 23.9677 142.446 24.3253 142.694 24.5943C142.81 24.7205 142.951 24.8202 143.107 24.8872C143.263 24.9542 143.432 24.9869 143.601 24.9832C143.774 24.9833 143.945 24.952 144.108 24.8906C144.261 24.8353 144.403 24.7519 144.527 24.6444C144.674 24.4993 144.8 24.3324 144.9 24.1491ZM144.9 23.2092C144.856 23.0014 144.768 22.8056 144.644 22.6351C144.524 22.4858 144.372 22.3671 144.2 22.2886C144.019 22.2015 143.82 22.1565 143.62 22.157C143.301 22.1507 142.993 22.2689 142.757 22.4875C142.56 22.6848 142.422 22.935 142.358 23.2092H144.9Z" fill="#526376"/>
<path d="M149.021 21.8171H149.547L150.454 23.0938L151.351 21.8171H151.879L150.718 23.4659L152.026 25.3072H151.491L150.454 23.8414L149.422 25.3072H148.898L150.19 23.469L149.021 21.8171Z" fill="#526376"/>
<path d="M158.122 23.6263H156.138V25.3072H155.699V21.8171H156.138V23.2028H158.122V21.8171H158.56V25.3072H158.122V23.6263Z" fill="#526376"/>
<path d="M164.36 21.7273C164.606 21.7213 164.85 21.7704 165.076 21.8713C165.302 21.9721 165.503 22.1223 165.666 22.3111C165.974 22.6605 166.142 23.1156 166.137 23.5859C166.132 24.0563 165.954 24.5076 165.639 24.8501C165.472 25.0234 165.272 25.161 165.052 25.2549C164.832 25.3488 164.597 25.3972 164.358 25.3972C164.12 25.3972 163.884 25.3488 163.665 25.2549C163.445 25.161 163.245 25.0234 163.078 24.8501C162.763 24.5082 162.585 24.0575 162.58 23.5876C162.575 23.1177 162.743 22.6631 163.051 22.3143C163.214 22.1244 163.416 21.9734 163.642 21.872C163.868 21.7706 164.113 21.7212 164.36 21.7273ZM164.358 22.1668C164.182 22.165 164.007 22.2008 163.845 22.2721C163.684 22.3433 163.538 22.4484 163.418 22.5806C163.29 22.712 163.19 22.8682 163.122 23.0402C163.055 23.2121 163.022 23.3961 163.025 23.5814C163.024 23.8286 163.085 24.0719 163.204 24.2872C163.317 24.4982 163.485 24.6731 163.689 24.7924C163.893 24.9092 164.124 24.9705 164.358 24.9705C164.593 24.9705 164.823 24.9092 165.028 24.7924C165.232 24.673 165.4 24.4982 165.512 24.2872C165.631 24.0719 165.693 23.8286 165.692 23.5814C165.695 23.396 165.662 23.2118 165.594 23.0398C165.526 22.8679 165.425 22.7117 165.297 22.5806C165.177 22.4487 165.032 22.3437 164.87 22.2725C164.709 22.2012 164.534 22.1653 164.358 22.1668V22.1668Z" fill="#526376"/>
<path d="M173.044 25.3072H172.578L171.436 22.7657L170.304 25.3072H169.834L171.397 21.8171H171.476L173.044 25.3072Z" fill="#526376"/>
<path d="M178.538 21.7273C178.784 21.7213 179.028 21.7704 179.254 21.8713C179.479 21.9721 179.681 22.1223 179.843 22.3111C180.151 22.6605 180.319 23.1156 180.314 23.5859C180.309 24.0563 180.132 24.5076 179.817 24.8501C179.649 25.0234 179.45 25.161 179.23 25.2549C179.01 25.3488 178.774 25.3972 178.536 25.3972C178.298 25.3972 178.062 25.3488 177.842 25.2549C177.622 25.161 177.423 25.0234 177.255 24.8501C176.94 24.5082 176.763 24.0575 176.758 23.5876C176.753 23.1177 176.921 22.6631 177.229 22.3143C177.392 22.1244 177.593 21.9734 177.819 21.872C178.046 21.7706 178.291 21.7212 178.538 21.7273ZM178.536 22.1668C178.36 22.165 178.185 22.2008 178.023 22.2721C177.861 22.3433 177.716 22.4484 177.596 22.5806C177.468 22.712 177.368 22.8682 177.3 23.0402C177.233 23.2121 177.199 23.3961 177.203 23.5814C177.201 23.8286 177.263 24.0719 177.382 24.2872C177.495 24.4982 177.662 24.6731 177.866 24.7924C178.071 24.9092 178.302 24.9705 178.536 24.9705C178.771 24.9705 179.001 24.9092 179.206 24.7924C179.41 24.673 179.577 24.4982 179.69 24.2872C179.809 24.0719 179.871 23.8286 179.869 23.5814C179.873 23.396 179.839 23.2118 179.772 23.0398C179.704 22.8679 179.603 22.7117 179.475 22.5806C179.355 22.4487 179.21 22.3437 179.048 22.2725C178.886 22.2012 178.712 22.1653 178.536 22.1668V22.1668Z" fill="#526376"/>
<path d="M184.773 22.2116V25.3072H184.334V21.8171H186.058V22.2116H184.773Z" fill="#526376"/>
<path d="M190.298 21.8171V24.3993L192.802 21.8171H192.836V25.3072H192.398V22.749L189.913 25.3072H189.859V21.8171H190.298Z" fill="#526376"/>
<path d="M197.462 21.8171V24.3993L199.966 21.8171H200V25.3072H199.562V22.749L197.077 25.3072H197.023V21.8171H197.462ZM197.399 20.4153H197.813C197.883 20.5251 197.982 20.612 198.098 20.6655C198.233 20.7242 198.378 20.7526 198.525 20.7488C198.663 20.7544 198.801 20.7292 198.929 20.6751C199.045 20.6137 199.145 20.5246 199.22 20.4153H199.621C199.569 20.6167 199.443 20.7897 199.269 20.898C199.044 21.0372 198.784 21.1048 198.521 21.0921C198.258 21.1037 197.997 21.0374 197.769 20.9012C197.59 20.7936 197.457 20.6197 197.399 20.4153L197.399 20.4153Z" fill="#526376"/>
<path d="M3.80371 27.4511C5.90445 27.4511 7.60743 25.7078 7.60743 23.5573C7.60743 21.4069 5.90445 19.6636 3.80371 19.6636C1.70298 19.6636 0 21.4069 0 23.5573C0 25.7078 1.70298 27.4511 3.80371 27.4511Z" fill="#E71F5E"/>
<path d="M13.1221 17.3273C15.2228 17.3273 16.9258 15.584 16.9258 13.4335C16.9258 11.2831 15.2228 9.53979 13.1221 9.53979C11.0213 9.53979 9.31836 11.2831 9.31836 13.4335C9.31836 15.584 11.0213 17.3273 13.1221 17.3273Z" fill="#546377"/>
<path d="M7.60743 9.53979H0V17.3273H7.60743V9.53979Z" fill="#546377"/>
<path d="M16.9258 19.6636H9.31836V27.4511H16.9258V19.6636Z" fill="#546377"/>
<path d="M13.1221 7.78751C15.2228 7.78751 16.9258 6.04422 16.9258 3.89375C16.9258 1.74329 15.2228 0 13.1221 0C11.0213 0 9.31836 1.74329 9.31836 3.89375C9.31836 6.04422 11.0213 7.78751 13.1221 7.78751Z" fill="#E71F5E"/>
<path d="M3.80371 7.78751C5.90445 7.78751 7.60743 6.04421 7.60743 3.89375C7.60743 1.74329 5.90445 0 3.80371 0C1.70298 0 0 1.74329 0 3.89375C0 6.04421 1.70298 7.78751 3.80371 7.78751Z" fill="#546377"/>
<path d="M22.4424 17.7167C24.5431 17.7167 26.2461 15.9734 26.2461 13.823C26.2461 11.6725 24.5431 9.9292 22.4424 9.9292C20.3417 9.9292 18.6387 11.6725 18.6387 13.823C18.6387 15.9734 20.3417 17.7167 22.4424 17.7167Z" fill="#E71F5E"/>
<path d="M22.4424 27.4511C24.5431 27.4511 26.2461 25.7078 26.2461 23.5573C26.2461 21.4069 24.5431 19.6636 22.4424 19.6636C20.3417 19.6636 18.6387 21.4069 18.6387 23.5573C18.6387 25.7078 20.3417 27.4511 22.4424 27.4511Z" fill="#546377"/>
<path d="M22.4424 7.78751C24.5431 7.78751 26.2461 6.04422 26.2461 3.89375C26.2461 1.74329 24.5431 0 22.4424 0C20.3417 0 18.6387 1.74329 18.6387 3.89375C18.6387 6.04422 20.3417 7.78751 22.4424 7.78751Z" fill="#E71F5E"/>
</g>
<defs>
<clipPath id="clip0_464_1388">
<rect width="200" height="27.451" fill="white"/>
</clipPath>
</defs>
</svg>
