<svg width="85" height="50" viewBox="0 0 85 50" fill="none" xmlns="http://www.w3.org/2000/svg">
<g clip-path="url(#clip0_464_1337)">
<path d="M28.194 48.7808V1.26095H15.8368V18.0786H12.2471V1.24585H0V48.7128H12.266V28.8978H15.9508V48.777H28.194V48.7808ZM45.6491 39.3206V28.8261H53.182V19.6452H45.6529V10.5814H53.6986V1.25717H33.3755V48.7619H54.4887V39.3168H45.6491V39.3206Z" fill="#00A3C3"/>
<path d="M28.194 48.7808H15.9508V28.9016H12.266V48.7166H0V1.24585H12.2471V18.0786H15.8368V1.26095H28.194V48.7808Z" fill="#00A3C3"/>
<path d="M84.1567 15.4775H72.8328C72.8328 13.8241 72.867 12.2159 72.8214 10.6078C72.7872 9.51303 72.6467 8.37297 71.2107 8.2333C69.6723 8.0823 69.1214 9.11288 68.8403 10.3888C68.1604 13.4655 69.1594 15.9192 71.7843 17.7086C74.8043 19.766 77.8547 21.7894 80.8139 23.9336C83.0513 25.5568 84.5708 27.8331 84.7683 30.5587C85.0418 34.3564 85.0722 38.1918 84.8633 41.9894C84.8633 42.299 84.8025 42.6954 84.6658 43.1484C83.887 45.7116 80.6239 50 71.8375 50C67.1993 50 63.9666 48.826 61.7823 47.2858C59.3701 45.5832 57.9152 42.8388 57.7291 39.9056C57.5126 36.4666 57.6227 31.8573 57.6227 31.8573H69.0303C69.0303 33.6693 69.0151 35.5266 69.0379 37.3839C69.0455 38.2635 68.9125 39.2224 69.224 39.9925C69.5013 40.6833 70.2763 41.6044 70.8727 41.6384C71.621 41.6799 72.753 41.1136 73.1291 40.4681C74.5992 37.9653 73.4748 32.9596 71.1158 31.2156C68.1756 29.0374 65.1556 26.9649 62.1584 24.866C59.5905 23.0691 57.8469 20.6267 57.6113 17.5613C57.3606 14.2733 57.3872 10.9098 57.8127 7.6444C58.2305 4.47716 60.544 2.43488 63.4918 1.33636C68.6922 -0.600224 73.9002 -0.411473 79.0095 1.75916C82.322 3.16724 83.9326 5.79087 84.134 9.2752C84.2479 11.2722 84.1567 13.2843 84.1567 15.4775Z" fill="#00A3C3"/>
<path d="M45.6486 39.3205H54.4883V48.7656H33.375V1.25708H53.6981V10.5814H45.6524V19.6452H53.1815V28.826H45.6486V39.3205Z" fill="#00A3C3"/>
</g>
<defs>
<clipPath id="clip0_464_1337">
<rect width="85" height="50" fill="white"/>
</clipPath>
</defs>
</svg>
