<svg width="200" height="50" viewBox="0 0 200 50" fill="none" xmlns="http://www.w3.org/2000/svg">
<path d="M60.4648 13.1294H66.7923V31.5136H75.8435V36.7463H60.4648V13.1294Z" fill="#333333"/>
<path d="M77.9375 27.6627C77.9375 21.6326 82.3524 18.1436 87.0612 18.1436C91.7701 18.1436 96.1849 21.6326 96.1849 27.6627C96.1849 33.6928 91.7701 37.1819 87.0612 37.1819C82.3524 37.1819 77.9375 33.6946 77.9375 27.6627ZM89.7105 27.6627C89.7105 24.9012 88.9756 23.1576 87.0612 23.1576C85.1468 23.1576 84.4119 24.9012 84.4119 27.6627C84.4119 30.4242 85.1468 32.1678 87.0612 32.1678C88.9756 32.1678 89.7105 30.4242 89.7105 27.6627Z" fill="#333333"/>
<path d="M98.4667 39.7263C98.4667 38.2362 99.3504 37.11 101.042 36.2372V36.0921C100.085 35.438 99.3486 34.4936 99.3486 32.9668C99.3486 31.7321 100.158 30.424 101.408 29.5512V29.4061C100.083 28.5334 98.9058 26.8632 98.9058 24.7558C98.9058 20.2507 102.733 18.1433 106.779 18.1433C107.81 18.1433 108.839 18.2885 109.723 18.5788H116.565V23.0839H113.916C114.063 23.5193 114.21 24.2469 114.21 24.9726C114.21 29.2591 110.898 31.0046 106.779 31.0046C106.191 31.0046 105.529 30.9329 104.72 30.751C104.351 31.078 104.279 31.2967 104.279 31.8038C104.279 32.603 105.016 32.8933 106.854 32.8933H109.613C114.212 32.8933 116.861 34.275 116.861 37.6171C116.861 41.5416 112.74 44.2296 106.191 44.2296C101.998 44.2296 98.4648 42.9949 98.4648 39.7245L98.4667 39.7263ZM110.828 38.7084C110.828 37.7641 109.944 37.6189 108.363 37.6189H106.928C105.456 37.6189 104.794 37.5454 104.279 37.4003C103.838 37.8357 103.616 38.1995 103.616 38.7084C103.616 39.8715 105.088 40.3804 107.222 40.3804C109.356 40.3804 110.828 39.7263 110.828 38.7084ZM108.768 24.7558C108.768 23.0839 107.959 22.2846 106.781 22.2846C105.603 22.2846 104.794 23.0839 104.794 24.7558C104.794 26.4278 105.603 27.2987 106.781 27.2987C107.959 27.2987 108.768 26.4994 108.768 24.7558Z" fill="#333333"/>
<path d="M119.211 13.2029C119.211 11.3858 120.683 10.0776 122.742 10.0776C124.802 10.0776 126.275 11.3858 126.275 13.2029C126.275 15.02 124.804 16.3282 122.742 16.3282C120.681 16.3282 119.211 15.02 119.211 13.2029ZM119.579 18.5808H125.907V36.7463H119.579V18.5808Z" fill="#333333"/>
<path d="M130.178 18.5807H135.327L135.768 20.7616H135.915C137.387 19.3799 139.227 18.1453 141.727 18.1453C145.774 18.1453 147.467 21.0519 147.467 25.557V36.7481H141.139V26.3562C141.139 24.0302 140.552 23.4496 139.299 23.4496C138.122 23.4496 137.459 23.9585 136.503 24.8294V36.7463H130.176V18.5807H130.178Z" fill="#333333"/>
<path d="M150.629 27.6625C150.629 21.6324 155.044 18.1433 159.753 18.1433C164.461 18.1433 168.876 21.6324 168.876 27.6625C168.876 33.6926 164.461 37.1816 159.753 37.1816C155.044 37.1816 150.629 33.6944 150.629 27.6625ZM162.402 27.6625C162.402 24.901 161.667 23.1574 159.753 23.1574C157.838 23.1574 157.103 24.901 157.103 27.6625C157.103 30.424 157.84 32.1676 159.753 32.1676C161.665 32.1676 162.402 30.424 162.402 27.6625Z" fill="#333333"/>
<path d="M172.186 18.5807H177.335L177.776 20.7965H177.923C179.395 19.3799 180.939 18.1453 183.441 18.1453C185.944 18.1453 187.525 19.1631 188.519 21.0519C190.027 19.5269 191.683 18.1453 194.184 18.1453C198.23 18.1453 199.998 21.0519 199.998 25.557V36.7481H193.67V26.3562C193.67 24.0302 193.082 23.4496 191.83 23.4496C191.095 23.4496 190.212 23.8851 189.255 24.8294V36.7463H182.928V26.3544C182.928 24.0284 182.34 23.4478 181.088 23.4478C180.353 23.4478 179.469 23.8832 178.513 24.8276V36.7445H172.186V18.5807Z" fill="#333333"/>
<path d="M35.7583 27.6883L15.2467 34.7123L13.4606 27.804L11.0476 27.5652L10.6699 20.6881L19.8662 17.9505L27.9164 18.3418L31.535 17.2615L33.0234 18.588L32.8467 21.2393L32.0001 23.2236L35.7583 27.6883Z" fill="#E7D2D5"/>
<path d="M14.294 31.0195L10.3219 33.3842L6.89302 42.3374L5.46605 43.5262H0V38.2806H5.46605V40.2796L6.33116 39.8607L9.44744 32.787L14.1265 30.3765L14.294 31.0195Z" fill="#333333"/>
<path d="M27.9162 18.3419L26.8334 24.4271L19.4102 26.6356L22.5953 18.0847L27.9162 18.3419Z" fill="#333333"/>
<path d="M40.0465 22.8801L39.1405 26.5309L35.7581 27.6884L32 23.2237L32.8465 21.2394L33.0233 18.5881L33.5256 18.612L40.0465 22.8801Z" fill="#333333"/>
<path d="M41.6474 18.0388L39.8483 8.43881L35.6902 4.22216L35.0297 4.07518L35.0855 3.53684L33.7125 3.21899L35.7925 1.58377L31.9637 0.211292L31.1358 1.7032L31.1451 0.652249L27.1228 0L27.8986 1.87407L26.0195 1.4423L25.8148 1.99349L22.6297 1.27694L13.2995 5.71039L7.96368 16.0582L1.23438 20.2252L9.10787 21.1531L10.6707 20.6882L19.8669 17.9506L27.9172 18.342L31.5358 17.2616L33.0241 18.5882L33.5265 18.6121L40.4381 23.1374L46.5125 23.8209L41.6474 18.0388Z" fill="#A23938"/>
<path d="M41.3958 25.7593L12.4097 35.6808L9.30273 45.9331H32.6199L46.512 36.7465L41.3958 25.7593Z" fill="#A23938"/>
<path d="M19.8669 17.9505L10.6707 20.6882L9.10786 21.153L1.23438 20.2251L7.96368 16.0581L19.8669 17.9505Z" fill="#7D2B29"/>
<path d="M46.5134 23.8209L40.439 23.1374L33.5273 18.6121L41.6483 18.0388L46.5134 23.8209Z" fill="#7D2B29"/>
<path d="M35.0838 3.53668L33.5248 18.6119L33.0224 18.588L31.5341 17.2615L27.9155 18.3418L19.8652 17.9505L26.0178 1.44214L35.0838 3.53668Z" fill="#7D2B29"/>
<path d="M46.512 36.7465L32.6199 45.9331H9.30273L45.5632 34.707L46.512 36.7465Z" fill="#7D2B29"/>
</svg>
