<svg width="570" height="140" viewBox="0 0 570 140" fill="none" xmlns="http://www.w3.org/2000/svg">
<path d="M172.326 36.939H190.359V88.6623H216.155V103.384H172.326V36.939Z" fill="#333333"/>
<path d="M222.123 77.8277C222.123 60.8623 234.705 51.0459 248.126 51.0459C261.546 51.0459 274.128 60.8623 274.128 77.8277C274.128 94.7931 261.546 104.609 248.126 104.609C234.705 104.609 222.123 94.7983 222.123 77.8277ZM255.676 77.8277C255.676 70.0583 253.582 65.1527 248.126 65.1527C242.67 65.1527 240.575 70.0583 240.575 77.8277C240.575 85.597 242.67 90.5026 248.126 90.5026C253.582 90.5026 255.676 85.597 255.676 77.8277Z" fill="#333333"/>
<path d="M280.632 111.768C280.632 107.576 283.151 104.407 287.971 101.952V101.544C285.245 99.7034 283.146 97.0464 283.146 92.7508C283.146 89.277 285.452 85.5965 289.015 83.1412V82.7328C285.24 80.2774 281.884 75.5786 281.884 69.6495C281.884 56.9745 292.79 51.0454 304.323 51.0454C307.261 51.0454 310.193 51.4538 312.711 52.2705H332.213V64.9455H324.663C325.082 66.1706 325.501 68.2176 325.501 70.2594C325.501 82.3193 316.062 87.23 304.323 87.23C302.648 87.23 300.76 87.0284 298.453 86.5167C297.404 87.4368 297.197 88.0519 297.197 89.4786C297.197 91.7273 299.296 92.544 304.535 92.544H312.398C325.506 92.544 333.056 96.4313 333.056 105.834C333.056 116.876 321.312 124.438 302.648 124.438C290.696 124.438 280.627 120.964 280.627 111.763L280.632 111.768ZM315.861 108.905C315.861 106.248 313.342 105.839 308.835 105.839H304.747C300.553 105.839 298.665 105.632 297.197 105.224C295.94 106.449 295.309 107.473 295.309 108.905C295.309 112.177 299.503 113.609 305.585 113.609C311.667 113.609 315.861 111.768 315.861 108.905ZM309.991 69.6495C309.991 64.9455 307.685 62.6969 304.328 62.6969C300.972 62.6969 298.665 64.9455 298.665 69.6495C298.665 74.3535 300.972 76.8037 304.328 76.8037C307.685 76.8037 309.991 74.5551 309.991 69.6495Z" fill="#333333"/>
<path d="M339.752 37.1459C339.752 32.0335 343.946 28.353 349.816 28.353C355.686 28.353 359.885 32.0335 359.885 37.1459C359.885 42.2583 355.691 45.9388 349.816 45.9388C343.941 45.9388 339.752 42.2583 339.752 37.1459ZM340.802 52.2762H358.835V103.384H340.802V52.2762Z" fill="#333333"/>
<path d="M371.007 52.2759H385.684L386.941 58.4118H387.36C391.554 54.5245 396.798 51.0508 403.924 51.0508C415.457 51.0508 420.282 59.2285 420.282 71.9035V103.389H402.249V74.1521C402.249 67.6078 400.573 65.9744 397.005 65.9744C393.648 65.9744 391.761 67.4062 389.035 69.8564V103.384H371.002V52.2759H371.007Z" fill="#333333"/>
<path d="M429.293 77.8272C429.293 60.8618 441.875 51.0454 455.296 51.0454C468.716 51.0454 481.298 60.8618 481.298 77.8272C481.298 94.7926 468.716 104.609 455.296 104.609C441.875 104.609 429.293 94.7978 429.293 77.8272ZM462.846 77.8272C462.846 70.0578 460.752 65.1522 455.296 65.1522C449.839 65.1522 447.745 70.0578 447.745 77.8272C447.745 85.5965 449.845 90.5021 455.296 90.5021C460.746 90.5021 462.846 85.5965 462.846 77.8272Z" fill="#333333"/>
<path d="M490.73 52.2759H505.407L506.664 58.51H507.083C511.277 54.5245 515.678 51.0508 522.81 51.0508C529.941 51.0508 534.448 53.9145 537.28 59.2285C541.58 54.938 546.299 51.0508 553.425 51.0508C564.958 51.0508 569.995 59.2285 569.995 71.9035V103.389H551.962V74.1521C551.962 67.6078 550.286 65.9744 546.718 65.9744C544.623 65.9744 542.105 67.1995 539.379 69.8564V103.384H521.346V74.1469C521.346 67.6027 519.671 65.9692 516.102 65.9692C514.008 65.9692 511.489 67.1943 508.764 69.8513V103.379H490.73V52.2759Z" fill="#333333"/>
<path d="M101.912 77.8998L43.4539 97.6618L38.3636 78.2255L31.4865 77.5535L30.4102 58.2051L56.6195 50.5029L79.5627 51.604L89.8757 48.5645L94.1176 52.2966L93.6139 59.7558L91.2013 65.3386L101.912 77.8998Z" fill="#E7D2D5"/>
<path d="M40.7378 87.2721L29.4173 93.9249L19.6451 119.115L15.5782 122.459H0V107.701H15.5782V113.325L18.0438 112.146L26.9252 92.2449L40.2606 85.4629L40.7378 87.2721Z" fill="#333333"/>
<path d="M79.5606 51.6046L76.4746 68.725L55.3184 74.9385L64.3959 50.8809L79.5606 51.6046Z" fill="#333333"/>
<path d="M114.134 64.3722L111.551 74.6435L101.912 77.9001L91.2012 65.3388L93.6137 59.7561L94.1174 52.2969L95.5491 52.3641L114.134 64.3722Z" fill="#333333"/>
<path d="M118.695 50.7515L113.567 23.7423L101.717 11.8789L99.8344 11.4654L99.9934 9.95077L96.0803 9.05649L102.008 4.45588L91.0961 0.594462L88.7366 4.79188L88.7631 1.83508L77.2995 0L79.5105 5.27262L74.1552 4.05785L73.5719 5.60862L64.4943 3.59262L37.9032 16.066L22.6961 45.1791L3.51758 56.9029L25.957 59.5134L30.411 58.2055L56.6204 50.5034L79.5636 51.6044L89.8766 48.5649L94.1184 52.2971L95.5501 52.3643L115.248 65.0961L132.56 67.0191L118.695 50.7515Z" fill="#A23938"/>
<path d="M117.979 72.4727L35.3686 100.386L26.5137 129.231H92.9677L132.56 103.385L117.979 72.4727Z" fill="#A23938"/>
<path d="M56.6204 50.503L30.411 58.2052L25.957 59.513L3.51758 56.9025L22.6961 45.1787L56.6204 50.503Z" fill="#7D2B29"/>
<path d="M132.563 67.019L115.251 65.0961L95.5527 52.3643L118.697 50.7515L132.563 67.019Z" fill="#7D2B29"/>
<path d="M99.9883 9.95054L95.5449 52.3641L94.1133 52.2969L89.8714 48.5647L79.5584 51.6042L56.6152 50.5032L74.15 4.05762L99.9883 9.95054Z" fill="#7D2B29"/>
<path d="M132.56 103.385L92.9677 129.231H26.5137L129.856 97.647L132.56 103.385Z" fill="#7D2B29"/>
</svg>
