<svg width="80" height="80" viewBox="0 0 80 80" fill="none" xmlns="http://www.w3.org/2000/svg">
<circle cx="40" cy="40" r="39" stroke="#C41D39" stroke-width="2"/>
<path d="M54 31H26C24.35 31 23 29.65 23 28V22C23 20.35 24.35 19 26 19H54C55.65 19 57 20.35 57 22V28C57 29.65 55.65 31 54 31ZM26 21C25.45 21 25 21.45 25 22V28C25 28.55 25.45 29 26 29H54C54.55 29 55 28.55 55 28V22C55 21.45 54.55 21 54 21H26Z" fill="#C41D39"/>
<path d="M54 45H26C24.35 45 23 43.65 23 42V36C23 34.35 24.35 33 26 33H54C55.65 33 57 34.35 57 36V42C57 43.65 55.65 45 54 45ZM26 35C25.45 35 25 35.45 25 36V42C25 42.55 25.45 43 26 43H54C54.55 43 55 42.55 55 42V36C55 35.45 54.55 35 54 35H26Z" fill="#C41D39"/>
<path d="M54 59H26C24.35 59 23 57.65 23 56V50C23 48.35 24.35 47 26 47H54C55.65 47 57 48.35 57 50V56C57 57.65 55.65 59 54 59ZM26 49C25.45 49 25 49.45 25 50V56C25 56.55 25.45 57 26 57H54C54.55 57 55 56.55 55 56V50C55 49.45 54.55 49 54 49H26Z" fill="#C41D39"/>
<path d="M29 40C29.5523 40 30 39.5523 30 39C30 38.4477 29.5523 38 29 38C28.4477 38 28 38.4477 28 39C28 39.5523 28.4477 40 29 40Z" fill="#C41D39"/>
<path d="M33 40C33.5523 40 34 39.5523 34 39C34 38.4477 33.5523 38 33 38C32.4477 38 32 38.4477 32 39C32 39.5523 32.4477 40 33 40Z" fill="#C41D39"/>
<path d="M29 54C29.5523 54 30 53.5523 30 53C30 52.4477 29.5523 52 29 52C28.4477 52 28 52.4477 28 53C28 53.5523 28.4477 54 29 54Z" fill="#C41D39"/>
<path d="M33 54C33.5523 54 34 53.5523 34 53C34 52.4477 33.5523 52 33 52C32.4477 52 32 52.4477 32 53C32 53.5523 32.4477 54 33 54Z" fill="#C41D39"/>
<path d="M29 26C29.5523 26 30 25.5523 30 25C30 24.4477 29.5523 24 29 24C28.4477 24 28 24.4477 28 25C28 25.5523 28.4477 26 29 26Z" fill="#C41D39"/>
<path d="M33 26C33.5523 26 34 25.5523 34 25C34 24.4477 33.5523 24 33 24C32.4477 24 32 24.4477 32 25C32 25.5523 32.4477 26 33 26Z" fill="#C41D39"/>
<path d="M56 53.5H41C40.72 53.5 40.5 53.28 40.5 53C40.5 52.72 40.72 52.5 41 52.5H56C56.28 52.5 56.5 52.72 56.5 53C56.5 53.28 56.28 53.5 56 53.5Z" fill="#C41D39"/>
<path d="M56.5 40H41.5C41.22 40 41 39.78 41 39.5C41 39.22 41.22 39 41.5 39H56.5C56.78 39 57 39.22 57 39.5C57 39.78 56.78 40 56.5 40Z" fill="#C41D39"/>
<path d="M56.5 26H41.5C41.22 26 41 25.78 41 25.5C41 25.22 41.22 25 41.5 25H56.5C56.78 25 57 25.22 57 25.5C57 25.78 56.78 26 56.5 26Z" fill="#C41D39"/>
<path d="M29.5 33H27.5C26.67 33 26 32.33 26 31.5V30H31V31.5C31 32.33 30.33 33 29.5 33ZM27 31V31.5C27 31.78 27.22 32 27.5 32H29.5C29.78 32 30 31.78 30 31.5V31H27Z" fill="#C41D39"/>
<path d="M52.5 33H50.5C49.67 33 49 32.33 49 31.5V30H54V31.5C54 32.33 53.33 33 52.5 33ZM50 31V31.5C50 31.78 50.22 32 50.5 32H52.5C52.78 32 53 31.78 53 31.5V31H50Z" fill="#C41D39"/>
<path d="M29.5 47H27.5C26.67 47 26 46.33 26 45.5V44H31V45.5C31 46.33 30.33 47 29.5 47ZM27 45V45.5C27 45.78 27.22 46 27.5 46H29.5C29.78 46 30 45.78 30 45.5V45H27Z" fill="#C41D39"/>
<path d="M52.5 47H50.5C49.67 47 49 46.33 49 45.5V44H54V45.5C54 46.33 53.33 47 52.5 47ZM50 45V45.5C50 45.78 50.22 46 50.5 46H52.5C52.78 46 53 45.78 53 45.5V45H50Z" fill="#C41D39"/>
<path d="M29.5 61H27.5C26.67 61 26 60.33 26 59.5V58H31V59.5C31 60.33 30.33 61 29.5 61ZM27 59V59.5C27 59.78 27.22 60 27.5 60H29.5C29.78 60 30 59.78 30 59.5V59H27Z" fill="#C41D39"/>
<path d="M52.5 61H50.5C49.67 61 49 60.33 49 59.5V58H54V59.5C54 60.33 53.33 61 52.5 61ZM50 59V59.5C50 59.78 50.22 60 50.5 60H52.5C52.78 60 53 59.78 53 59.5V59H50Z" fill="#C41D39"/>
</svg>
