<svg width="80" height="80" viewBox="0 0 80 80" fill="none" xmlns="http://www.w3.org/2000/svg">
<circle cx="40" cy="40" r="39" stroke="#C41D39" stroke-width="2"/>
<g clip-path="url(#clip0_599_2156)">
<path d="M30 53V46C30 45.45 29.55 45 29 45C28.45 45 28 45.45 28 46V53C28 54.66 29.34 56 31 56H40V54H31C30.45 54 30 53.55 30 53Z" fill="#C41D39"/>
<path d="M51 20H31C29.34 20 28 21.34 28 23V33C28 33.55 28.45 34 29 34C29.55 34 30 33.55 30 33V23C30 22.45 30.45 22 31 22H50L53.05 20.83C52.51 20.32 51.79 20 51 20V20Z" fill="#C41D39"/>
<path d="M41 62C40.62 62 40.25 61.89 39.92 61.68C39.34 61.31 39 60.68 39 60V27.6401C39 26.8601 39.46 26.1501 40.16 25.8201L51.16 20.7501C51.78 20.4601 52.5 20.5101 53.08 20.8801C53.66 21.2501 54 21.8801 54 22.5701V54.93C54 55.71 53.54 56.42 52.84 56.75L41.84 61.83C41.57 61.95 41.29 62.01 41 62.01V62ZM52 22.5601L41 27.6401V60L52 54.92V22.5601Z" fill="#C41D39"/>
<path d="M44 45C44.5523 45 45 44.5523 45 44C45 43.4477 44.5523 43 44 43C43.4477 43 43 43.4477 43 44C43 44.5523 43.4477 45 44 45Z" fill="#C41D39"/>
<path d="M34.5 40H22.5C22.22 40 22 39.78 22 39.5C22 39.22 22.22 39 22.5 39H34.5C34.78 39 35 39.22 35 39.5C35 39.78 34.78 40 34.5 40Z" fill="#C41D39"/>
<path d="M35.5 40C35.37 40 35.24 39.95 35.15 39.85L31.15 35.85C30.95 35.65 30.95 35.34 31.15 35.14C31.35 34.94 31.66 34.94 31.86 35.14L35.86 39.14C36.06 39.34 36.06 39.65 35.86 39.85C35.76 39.95 35.63 40 35.51 40H35.5Z" fill="#C41D39"/>
<path d="M31.5 44C31.37 44 31.24 43.95 31.15 43.85C30.95 43.65 30.95 43.34 31.15 43.14L35.15 39.14C35.35 38.94 35.66 38.94 35.86 39.14C36.06 39.34 36.06 39.65 35.86 39.85L31.86 43.85C31.76 43.95 31.63 44 31.51 44H31.5Z" fill="#C41D39"/>
</g>
<defs>
<clipPath id="clip0_599_2156">
<rect width="33" height="42" fill="white" transform="translate(22 20)"/>
</clipPath>
</defs>
</svg>
