<svg width="80" height="80" viewBox="0 0 80 80" fill="none" xmlns="http://www.w3.org/2000/svg">
<circle cx="40" cy="40" r="39" stroke="#C41D39" stroke-width="2"/>
<g clip-path="url(#clip0_167_508)">
<path d="M54 21C54.55 21 55 21.45 55 22V57.97C55 58.52 54.55 58.97 54 58.97H26C25.45 58.97 25 58.52 25 57.97V26.24C25 25.97 25.1 25.72 25.29 25.53L29.54 21.29C29.73 21.1 29.98 21 30.25 21H54ZM54 19H30.24C29.44 19 28.68 19.32 28.12 19.88L23.88 24.12C23.32 24.68 23 25.45 23 26.24V57.97C23 59.63 24.34 60.97 26 60.97H54C55.66 60.97 57 59.63 57 57.97V22C57 20.34 55.66 19 54 19Z" fill="#C41D39"/>
<rect x="30" y="38" width="20" height="1" rx="0.5" fill="#C41D39"/>
<rect x="30" y="42" width="20" height="1" rx="0.5" fill="#C41D39"/>
<rect x="30" y="46" width="20" height="1" rx="0.5" fill="#C41D39"/>
<rect x="30" y="50" width="20" height="1" rx="0.5" fill="#C41D39"/>
</g>
<path d="M49 32H31C30.45 32 30 32.45 30 33C30 33.55 30.45 34 31 34H49C49.55 34 50 33.55 50 33C50 32.45 49.55 32 49 32Z" fill="#C41D39"/>
<defs>
<clipPath id="clip0_167_508">
<rect width="34" height="41.97" fill="white" transform="translate(23 19)"/>
</clipPath>
</defs>
</svg>
