<svg width="80" height="80" viewBox="0 0 80 80" fill="none" xmlns="http://www.w3.org/2000/svg">
<circle cx="40" cy="40" r="39" stroke="#C41D39" stroke-width="2"/>
<path d="M62.5399 45.21C62.4699 45.21 62.4099 45.21 62.3399 45.19C61.7999 45.08 61.4499 44.55 61.5599 44.01C61.8499 42.59 61.9999 41.12 61.9999 39.65C61.9999 27.71 52.2899 18.01 40.3599 18.01C31.1999 18 22.9899 23.8 19.9399 32.43C19.7599 32.95 19.1799 33.22 18.6599 33.04C18.1399 32.86 17.8699 32.28 18.0499 31.76C21.3899 22.33 30.3499 16 40.3599 16C53.3999 16 63.9999 26.61 63.9999 39.64C63.9999 41.24 63.8399 42.85 63.5199 44.4C63.4199 44.87 63.0099 45.2 62.5399 45.2V45.21Z" fill="#C41D39"/>
<path d="M51.8506 55.41C51.7006 55.41 51.5606 55.35 51.4606 55.22C51.2906 55 51.3206 54.69 51.5406 54.52C55.2106 51.58 57.5806 47.42 58.2106 42.78C58.3206 41.97 58.3806 41.15 58.3806 40.32C58.3806 30.31 50.2306 22.16 40.2206 22.16C33.8206 22.16 28.0206 25.43 24.6906 30.9C24.4206 31.34 24.1806 31.79 23.9506 32.25C23.8306 32.5 23.5306 32.6 23.2806 32.48C23.0306 32.36 22.9306 32.06 23.0506 31.81C23.2906 31.33 23.5506 30.85 23.8306 30.39C27.3406 24.61 33.4706 21.16 40.2106 21.16C50.7706 21.16 59.3706 29.75 59.3706 40.32C59.3706 41.19 59.3106 42.06 59.2006 42.91C58.5406 47.8 56.0406 52.2 52.1606 55.3C52.0706 55.37 51.9606 55.41 51.8506 55.41Z" fill="#C41D39"/>
<path d="M40.2202 43.58C39.3502 43.58 38.5302 43.24 37.9102 42.62C37.2902 42 36.9502 41.18 36.9502 40.31C36.9502 39.44 37.2902 38.62 37.9102 38C39.0202 36.89 46.0402 33.41 46.8402 33.02C47.0302 32.93 47.2602 32.96 47.4102 33.11C47.5602 33.26 47.6002 33.49 47.5002 33.68C47.1102 34.48 43.6202 41.5 42.5202 42.61C41.9002 43.23 41.0802 43.57 40.2102 43.57L40.2202 43.58ZM45.9502 34.59C42.9702 36.09 39.2702 38.07 38.6202 38.71C37.7402 39.59 37.7402 41.03 38.6202 41.91C39.5002 42.79 40.9402 42.79 41.8202 41.91C42.4702 41.26 44.4402 37.56 45.9402 34.58L45.9502 34.59Z" fill="#C41D39"/>
<path d="M30.8504 31.7301C30.7204 31.7301 30.5904 31.6801 30.5004 31.5801L26.5904 27.6701C26.3904 27.4701 26.3904 27.1601 26.5904 26.9601C26.7904 26.7601 27.1004 26.7601 27.3004 26.9601L31.2104 30.8701C31.4104 31.0701 31.4104 31.3801 31.2104 31.5801C31.1104 31.6801 30.9804 31.7301 30.8604 31.7301H30.8504Z" fill="#C41D39"/>
<path d="M49.3105 31.45C49.1805 31.45 49.0505 31.4 48.9605 31.3C48.7605 31.1 48.7605 30.79 48.9605 30.59L52.8705 26.68C53.0705 26.48 53.3805 26.48 53.5805 26.68C53.7805 26.88 53.7805 27.19 53.5805 27.39L49.6705 31.3C49.5705 31.4 49.4405 31.45 49.3205 31.45H49.3105Z" fill="#C41D39"/>
<path d="M40.0205 27.77C39.7405 27.77 39.5205 27.55 39.5205 27.27V21.74C39.5205 21.46 39.7405 21.24 40.0205 21.24C40.3005 21.24 40.5205 21.46 40.5205 21.74V27.27C40.5205 27.55 40.3005 27.77 40.0205 27.77Z" fill="#C41D39"/>
<path d="M58.8005 40.62H53.2705C52.9905 40.62 52.7705 40.4 52.7705 40.12C52.7705 39.84 52.9905 39.62 53.2705 39.62H58.8005C59.0805 39.62 59.3005 39.84 59.3005 40.12C59.3005 40.4 59.0805 40.62 58.8005 40.62Z" fill="#C41D39"/>
<path d="M33 49.61H23C22.4477 49.61 22 50.0577 22 50.61C22 51.1623 22.4477 51.61 23 51.61H33C33.5523 51.61 34 51.1623 34 50.61C34 50.0577 33.5523 49.61 33 49.61Z" fill="#C41D39"/>
<path d="M31 43.74H21C20.4477 43.74 20 44.1877 20 44.74C20 45.2923 20.4477 45.74 21 45.74H31C31.5523 45.74 32 45.2923 32 44.74C32 44.1877 31.5523 43.74 31 43.74Z" fill="#C41D39"/>
<path d="M29 37.86H19C18.4477 37.86 18 38.3077 18 38.86C18 39.4123 18.4477 39.86 19 39.86H29C29.5523 39.86 30 39.4123 30 38.86C30 38.3077 29.5523 37.86 29 37.86Z" fill="#C41D39"/>
</svg>
