<svg width="80" height="80" viewBox="0 0 80 80" fill="none" xmlns="http://www.w3.org/2000/svg">
<circle cx="40" cy="40" r="39" stroke="#C41D39" stroke-width="2"/>
<path d="M40.5 21C46.29 21 51 25.71 51 31.5C51 37.29 46.29 42 40.5 42C34.71 42 30 37.29 30 31.5C30 25.71 34.71 21 40.5 21ZM40.5 19C33.6 19 28 24.6 28 31.5C28 38.4 33.6 44 40.5 44C47.4 44 53 38.4 53 31.5C53 24.6 47.4 19 40.5 19Z" fill="#C41D39"/>
<path d="M40.5 28.5C38.62 28.5 37.38 28.28 36.07 28.05C34.53 27.78 32.93 27.5 30 27.5V26.5C33.01 26.5 34.73 26.8 36.24 27.07C37.51 27.29 38.7 27.5 40.5 27.5C42.3 27.5 43.49 27.29 44.76 27.07C46.27 26.8 47.99 26.5 51 26.5V27.5C48.08 27.5 46.48 27.78 44.93 28.05C43.62 28.28 42.38 28.5 40.5 28.5Z" fill="#C41D39"/>
<path d="M26 60.02C25.45 60.02 25 59.57 25 59.02V55.25C25 47.42 31.35 44.69 31.62 44.58C32.13 44.37 32.72 44.61 32.93 45.12C33.14 45.63 32.9 46.22 32.39 46.43C32.17 46.52 27.01 48.79 27.01 55.26V59.03C27.01 59.58 26.56 60.03 26.01 60.03L26 60.02Z" fill="#C41D39"/>
<path d="M53.9998 60.02C53.4498 60.02 52.9998 59.57 52.9998 59.02V55.25C52.9998 48.79 47.8298 46.52 47.6098 46.42C47.0998 46.2 46.8598 45.62 47.0798 45.11C47.2898 44.6 47.8798 44.36 48.3798 44.57C48.6498 44.68 54.9998 47.42 54.9998 55.24V59.01C54.9998 59.56 54.5498 60.01 53.9998 60.01V60.02Z" fill="#C41D39"/>
<path d="M38.9196 48.85C38.8296 48.85 38.7396 48.83 38.6596 48.78L34.7396 46.43C34.4996 46.29 34.4296 45.98 34.5696 45.74C34.7096 45.5 35.0196 45.43 35.2596 45.57L39.1796 47.92C39.4196 48.06 39.4896 48.37 39.3496 48.61C39.2596 48.77 39.0896 48.85 38.9196 48.85Z" fill="#C41D39"/>
<path d="M41.0797 48.85C40.9097 48.85 40.7397 48.76 40.6497 48.61C40.5097 48.37 40.5797 48.07 40.8197 47.92L44.7397 45.57C44.9797 45.43 45.2797 45.5 45.4297 45.74C45.5697 45.98 45.4997 46.28 45.2597 46.43L41.3397 48.78C41.2597 48.83 41.1697 48.85 41.0797 48.85Z" fill="#C41D39"/>
<path d="M41 48L43.5 59.5L40 62.5L36.5 59.5L39 48" stroke="#C41D39" stroke-linecap="round" stroke-linejoin="round"/>
<path d="M39 48H41" stroke="#C41D39" stroke-width="2" stroke-linecap="round" stroke-linejoin="round"/>
<path d="M24 22V18H28" stroke="#C41D39" stroke-width="2" stroke-linecap="round" stroke-linejoin="round"/>
<path d="M56 22V18H52" stroke="#C41D39" stroke-width="2" stroke-linecap="round" stroke-linejoin="round"/>
<path d="M24 40V44H28" stroke="#C41D39" stroke-width="2" stroke-linecap="round" stroke-linejoin="round"/>
<path d="M56 40V44H52" stroke="#C41D39" stroke-width="2" stroke-linecap="round" stroke-linejoin="round"/>
</svg>
