<svg width="54" height="54" viewBox="0 0 54 54" fill="none" xmlns="http://www.w3.org/2000/svg">
<g clip-path="url(#clip0_283_1044)">
<path d="M27 0C12.09 0 0 12.09 0 27C0 41.91 12.09 54 27 54C41.91 54 54 41.91 54 27C54 12.09 41.91 0 27 0ZM27 53C12.66 53 1 41.34 1 27C1 12.66 12.66 1 27 1C41.34 1 53 12.66 53 27C53 41.34 41.34 53 27 53Z" fill="#C41D39"/>
<path d="M27.0004 29.14C31.7304 29.14 35.5704 25.3 35.5704 20.57C35.5704 19.7 35.4404 18.86 35.2004 18.06C35.2004 18 35.1704 17.95 35.1504 17.9C34.0304 14.47 30.8104 11.99 27.0104 11.99C22.2804 11.99 18.4404 15.83 18.4404 20.56C18.4404 25.29 22.2804 29.13 27.0104 29.13L27.0004 29.14ZM27.0004 13C30.1304 13 32.8204 14.91 33.9704 17.62C32.1404 17.47 30.9804 16.8 30.1104 16.29C29.5104 15.94 29.0304 15.66 28.5204 15.66C28.3904 15.66 28.2604 15.71 28.1704 15.81C25.8304 18.15 20.8604 18.41 19.7404 18.46C20.6604 15.32 23.5704 13.02 27.0004 13.02V13ZM19.5204 19.45C19.9104 19.45 25.7304 19.4 28.6904 16.67C28.9304 16.74 29.2504 16.93 29.6004 17.14C30.5604 17.71 32.0004 18.54 34.3004 18.63C34.4604 19.25 34.5604 19.9 34.5604 20.57C34.5604 24.74 31.1604 28.14 26.9904 28.14C22.8204 28.14 19.4204 24.74 19.4204 20.57C19.4204 20.19 19.4604 19.82 19.5104 19.45H19.5204Z" fill="#C41D39"/>
<path d="M32.9595 29.75C32.9595 29.75 32.9395 29.75 32.9195 29.75C32.8895 29.74 32.8595 29.74 32.8195 29.73C32.7895 29.73 32.7595 29.73 32.7295 29.73C32.6995 29.73 32.6695 29.74 32.6395 29.75C32.6095 29.75 32.5795 29.77 32.5495 29.78C32.5195 29.79 32.4995 29.81 32.4695 29.83C32.4395 29.85 32.4195 29.87 32.3995 29.9C32.3995 29.9 32.3795 29.91 32.3695 29.92L29.5395 33.76L29.0295 31.12C28.9995 30.95 28.8795 30.82 28.7295 30.76H28.7095C28.7095 30.76 28.6195 30.73 28.5795 30.72C28.5595 30.72 28.5495 30.71 28.5295 30.71H25.5295C25.5295 30.71 25.4995 30.71 25.4795 30.72C25.4395 30.72 25.4095 30.72 25.3795 30.74C25.3495 30.74 25.3195 30.76 25.2995 30.77C25.2695 30.79 25.2395 30.8 25.2195 30.83C25.1995 30.85 25.1795 30.87 25.1595 30.89C25.1395 30.92 25.1195 30.94 25.1095 30.97C25.0895 31 25.0795 31.03 25.0695 31.06C25.0695 31.08 25.0495 31.09 25.0495 31.11L24.5295 33.82L21.6495 29.92C21.6495 29.92 21.6295 29.91 21.6195 29.9C21.5995 29.87 21.5695 29.85 21.5495 29.83C21.5195 29.81 21.4995 29.79 21.4695 29.78C21.4395 29.77 21.4095 29.76 21.3795 29.75C21.3495 29.75 21.3195 29.73 21.2895 29.73C21.2595 29.73 21.2295 29.73 21.1995 29.73C21.1695 29.73 21.1395 29.73 21.0995 29.75C21.0895 29.75 21.0795 29.75 21.0595 29.75C21.0095 29.77 16.0195 31.82 16.0195 37.72V41.5C16.0195 41.78 16.2395 42 16.5195 42C16.7995 42 17.0195 41.78 17.0195 41.5V37.72C17.0195 33.35 20.0595 31.38 21.0895 30.84L26.5195 38.2V41.49C26.5195 41.77 26.7395 41.99 27.0195 41.99C27.2995 41.99 27.5195 41.77 27.5195 41.49V38.2L32.9495 30.84C33.9795 31.38 37.0195 33.34 37.0195 37.72V41.5C37.0195 41.78 37.2395 42 37.5195 42C37.7995 42 38.0195 41.78 38.0195 41.5V37.72C38.0195 31.82 33.0295 29.77 32.9795 29.75H32.9595ZM25.9395 31.71H28.1295L28.7295 34.85L26.9995 37.19L25.3195 34.91L25.9295 31.7L25.9395 31.71Z" fill="#C41D39"/>
<path d="M34.4297 38H30.9697C30.6897 38 30.4697 38.22 30.4697 38.5C30.4697 38.78 30.6897 39 30.9697 39H34.4297C34.7097 39 34.9297 38.78 34.9297 38.5C34.9297 38.22 34.7097 38 34.4297 38Z" fill="#C41D39"/>
</g>
<defs>
<clipPath id="clip0_283_1044">
<rect width="54" height="54" fill="white"/>
</clipPath>
</defs>
</svg>
