<svg width="54" height="54" viewBox="0 0 54 54" fill="none" xmlns="http://www.w3.org/2000/svg">
<g clip-path="url(#clip0_283_1052)">
<path d="M27 0C12.09 0 0 12.09 0 27C0 41.91 12.09 54 27 54C41.91 54 54 41.91 54 27C54 12.09 41.91 0 27 0ZM27 53C12.66 53 1 41.34 1 27C1 12.66 12.66 1 27 1C41.34 1 53 12.66 53 27C53 41.34 41.34 53 27 53Z" fill="#C41D39"/>
<path d="M36 16H34V15C34 13.9 33.1 13 32 13H18C16.9 13 16 13.9 16 15V37C16 38.1 16.9 39 18 39H19V41C19 42.1 19.9 43 21 43H36C37.1 43 38 42.1 38 41V18C38 16.9 37.1 16 36 16ZM18 38C17.45 38 17 37.55 17 37V15C17 14.45 17.45 14 18 14H32C32.55 14 33 14.45 33 15V16H21C19.9 16 19 16.9 19 18V38H18ZM37 41C37 41.55 36.55 42 36 42H21C20.45 42 20 41.55 20 41V18C20 17.45 20.45 17 21 17H36C36.55 17 37 17.45 37 18V41Z" fill="#C41D39"/>
<path d="M34 22H23C22.72 22 22.5 22.22 22.5 22.5C22.5 22.78 22.72 23 23 23H34C34.28 23 34.5 22.78 34.5 22.5C34.5 22.22 34.28 22 34 22Z" fill="#C41D39"/>
<path d="M34 26.67H23C22.72 26.67 22.5 26.89 22.5 27.17C22.5 27.45 22.72 27.67 23 27.67H34C34.28 27.67 34.5 27.45 34.5 27.17C34.5 26.89 34.28 26.67 34 26.67Z" fill="#C41D39"/>
<path d="M34 31.33H23C22.72 31.33 22.5 31.55 22.5 31.83C22.5 32.11 22.72 32.33 23 32.33H34C34.28 32.33 34.5 32.11 34.5 31.83C34.5 31.55 34.28 31.33 34 31.33Z" fill="#C41D39"/>
<path d="M34 36H23C22.72 36 22.5 36.22 22.5 36.5C22.5 36.78 22.72 37 23 37H34C34.28 37 34.5 36.78 34.5 36.5C34.5 36.22 34.28 36 34 36Z" fill="#C41D39"/>
</g>
<defs>
<clipPath id="clip0_283_1052">
<rect width="54" height="54" fill="white"/>
</clipPath>
</defs>
</svg>
